<?xml version="1.0" encoding="utf-8"?>
<!-- Generator: Adobe Illustrator 22.1.0, SVG Export Plug-In . SVG Version: 6.00 Build 0)  -->
<svg version="1.1" xmlns="http://www.w3.org/2000/svg" xmlns:xlink="http://www.w3.org/1999/xlink" x="0px" y="0px"
	 viewBox="0 0 609 521.9" style="enable-background:new 0 0 609 521.9;" xml:space="preserve">
<style type="text/css">
	.st0{fill:#BF8660;}
	.st1{fill:#A57453;}
	.st2{fill:#AF7A56;}
	.st3{fill:#CC8C60;}
	.st4{fill:#CC8E64;}
	.st5{enable-background:new    ;}
	.st6{fill:#BC825B;}
	.st7{fill:#FFFFFF;}
</style>
<g id="Layer_3">
	<polygon class="st0" points="301.3,209.4 301.3,209.4 301.3,209.4 301.3,209.3 	"/>
	<polygon class="st1" points="301.3,209.3 301.3,209.4 301.3,209.3 	"/>
	<path class="st2" d="M480,195.7l-165.3-165c-3.6-3.6-8.4-5.6-13.4-5.6v0.1c-5.1-0.1-10.1,2-13.7,5.6l-165,165.3c0,0,0,0,0,0
		c-7.5,7.5-7.5,19.6,0,27.1L288,388.1c3.5,3.5,8.4,5.6,13.4,5.6v0c5.1,0.1,10.1-2,13.7-5.6L480,222.8
		C487.5,215.3,487.5,203.2,480,195.7z M301.3,209.4L301.3,209.4L301.3,209.4L301.3,209.4L301.3,209.4L301.3,209.4z"/>
	<polygon class="st3" points="301.3,209.3 301.3,209.4 301.3,209.4 301.3,209.4 301.3,209.3 	"/>
	<polygon class="st2" points="301.3,209.4 301.3,209.4 301.3,209.4 301.3,209.3 	"/>
	<polygon class="st4" points="301.3,209.3 301.3,209.4 301.3,209.4 	"/>
</g>
<g id="Layer_1">
	<g class="st5">
		<path class="st2" d="M197.2,496.7v-92h29.1c6.1,0,11.4,1.1,15.9,3.4c4.5,2.3,8,5.4,10.5,9.5c2.5,4.1,3.8,8.9,3.8,14.4
			c0,6.1-1.5,11.5-4.6,16.1c-3.1,4.6-7.2,7.8-12.4,9.8l18.3,38.8h-17.6l-16-36.5h-11.2v36.5H197.2z M212.9,446.3h13.4
			c4.5,0,7.9-1.2,10.5-3.7c2.5-2.4,3.8-5.8,3.8-10.1s-1.3-7.7-3.8-10.2c-2.6-2.5-6-3.8-10.4-3.8h-13.4V446.3z"/>
		<path class="st2" d="M301,498c-8.8,0-15.8-2.5-21-7.4s-7.7-11.5-7.7-19.8v-40.1c0-8.3,2.6-14.9,7.7-19.8s12.2-7.4,21-7.4
			s15.8,2.5,21,7.4s7.7,11.5,7.7,19.7v40.2c0,8.3-2.6,14.9-7.7,19.8S309.8,498,301,498z M301,484.1c4.3,0,7.5-1.2,9.7-3.5
			c2.2-2.3,3.3-5.6,3.3-9.9v-40.1c0-4.3-1.1-7.6-3.3-9.9c-2.2-2.3-5.4-3.5-9.7-3.5s-7.5,1.2-9.7,3.5c-2.2,2.3-3.3,5.6-3.3,9.9v40.1
			c0,4.3,1.1,7.6,3.3,9.9C293.5,483,296.7,484.1,301,484.1z"/>
	</g>
	<g class="st5">
		<path class="st2" d="M348.3,496.7l-10.5-92h15.1l6.2,64.3c0.2,2.2,0.4,5,0.6,8.4c0.2,3.4,0.4,6.3,0.5,8.6c0.2-2.4,0.5-5.2,0.8-8.6
			c0.4-3.4,0.7-6.2,1-8.4l8.4-64.3h14.7L393,469c0.3,2.2,0.6,5,1.1,8.4c0.4,3.4,0.8,6.3,1.2,8.6c0.1-2.4,0.2-5.2,0.4-8.6
			c0.2-3.4,0.4-6.2,0.7-8.4l6-64.3h15l-11.1,92H387l-7.6-64.5c-0.3-2.4-0.6-5.4-0.9-8.9c-0.3-3.5-0.6-6.4-0.8-8.6
			c-0.2,2.3-0.4,5.1-0.8,8.6c-0.3,3.5-0.6,6.4-0.9,8.9l-8.3,64.5H348.3z"/>
	</g>
	<path class="st0" d="M301.4,393.7l-0.1-184.3l96.2,96.3l-82.4,82.5C311.4,391.7,306.5,393.7,301.4,393.7z"/>
	<path class="st1" d="M480,222.8l-82.7,82.7L375,283.3c-5.2-5.2-13.6-5.2-18.8,0L344,295.6l-0.1-0.1c-8.8,9.2-23.3,9.5-32.4,0.7
		c-9.2-8.8-9.5-23.3-0.7-32.4c0.2-0.2,0.4-0.5,0.7-0.7l-0.1-0.1l12.3-12.3c5.2-5.2,5.2-13.6,0-18.8l-22.4-22.6l96.3-96.1l82.4,82.4
		C487.5,203.2,487.5,215.3,480,222.8z"/>
	<path class="st3" d="M301.3,25.2v184.2l-96.1-96.2l82.4-82.5C291.2,27.1,296.2,25.1,301.3,25.2z"/>
	<path class="st6" d="M387.4,166.8c9.4,8.5,10,23.1,1.5,32.4c-8.5,9.4-23.1,10-32.4,1.5c-0.5-0.5-1-0.9-1.4-1.4l-0.1,0.1L342.7,187
		c-5.2-5.2-13.6-5.2-18.8,0l-22.6,22.3l0-184.3c5,0,9.9,2,13.4,5.6l82.7,82.7l-22.3,22.3c-5.2,5.2-5.2,13.6,0,18.8L387.4,166.8
		L387.4,166.8z"/>
	<path class="st2" d="M301.3,209.4L205,305.7l-82.4-82.5c-7.5-7.5-7.5-19.6,0-27.1c0,0,0,0,0,0l82.7-82.7l22.3,22.3
		c5.2,5.2,13.6,5.2,18.8,0c0,0,0,0,0,0l12.3-12.3l0.1,0.1c8.8-9.1,23.3-9.4,32.4-0.7c9.1,8.8,9.4,23.3,0.7,32.4
		c-0.2,0.2-0.4,0.5-0.7,0.7l0.1,0.1l-12.3,12.3c-5.2,5.2-5.2,13.6,0,18.8c0,0,0,0,0,0L301.3,209.4z"/>
	<path class="st4" d="M301.4,393.7c-5,0-9.8-2-13.4-5.6l-82.7-82.7l22.3-22.3c5.2-5.2,5.2-13.6,0-18.8c0,0,0,0,0,0L215.2,252
		l0.1-0.1c-9.2-8.7-9.6-23.2-0.9-32.4c8.7-9.2,23.2-9.6,32.4-0.9c0.3,0.3,0.6,0.6,0.9,0.9l0.1-0.1l12.3,12.3
		c5.2,5.2,13.6,5.2,18.8,0l22.5-22.4L301.4,393.7z"/>
</g>
<g id="Layer_2">
	<path class="st7" d="M337.9,298.6c0.2,0.8-0.2,1.7-1,2l-34.4,12c-0.4,0.1-0.8,0.2-1.2,0.2c-0.4,0-0.8-0.1-1.1-0.2l-34.6-11.3
		c-0.8-0.3-1.2-1.1-1-1.9l16.3-90.3c-20.8-11.4-28.4-37.6-17-58.4c7.5-13.5,21.6-22.1,37.1-22.3h0.4c23.8,0.1,42.9,19.4,42.8,43.2
		c-0.1,16.3-9.4,31.2-24,38.4L337.9,298.6z"/>
</g>
</svg>
