<svg id="Layer_1" data-name="Layer 1" xmlns="http://www.w3.org/2000/svg" viewBox="0 0 550.63 142.76"><defs><style>.cls-1{fill:#5a602e;}.cls-2{fill:#795433;}.cls-3{fill:#c0b9a1;}.cls-4{fill:#9f5326;}.cls-5{fill:#c7d798;}.cls-6{fill:#f0e3d0;}</style></defs><title>wallet</title><path class="cls-1" d="M319.12,87.18,318,88.62a5,5,0,0,1-.7-1.31c-.45-2.2-.44-5-2.06-6.26-2-1.56-4.35.68-6.5,1.44-.85.3-2.17.55-1.82-.74,1.25-4.63-2.18-2.63-3.56-2.36-16.76,3.2-33.31,7.58-50.56,7.8-7,.08-13.7,2.78-20.77,2.54-12.58-.42-25.12,2.21-37.72.66a2.37,2.37,0,0,0-1.12,0c-1.95.8-4.17,1.46-3,4.41a49.24,49.24,0,0,1,.7,7c-.11,3.29-1.7,4-4.95,2.71-1.37-1.24-2.69-2.56-4.14-3.71-3.64-2.88-4.24-2.74-6.73,1.32-2.36,3.63-4.16,3.67-6.36,0s-4.62-6.58-9.63-5.43c-2.3.52-3.75-.82-3.91-3.29.87-1,1.74-2.1,2.59-3.16s2.3-2,1.76-3.85c-.17-.59-.09-1.33-.79-1.56-1.15-.38-1.08.46-1.18,1.23-.2,1.42-1.43,1.3-2.34,1.22-4.31-.39-8.6-.88-12.9-1.34.82-2.24.23-6.2,3-6.27,4.59-.11,8.11-2.83,12.35-3.53,6.37-1.06,12.75-1.82,19.19-2.49,15.39-1.59,30.53.78,45.77,1.53,3.41.17,7.6,2.1,9.58-3.8,1,2.21,2,3.4,3.86,3.29,3-.18,6,.27,9-.44,2.58,2.16,5.49,1.14,8.32.86a87.75,87.75,0,0,0,12.87-.21c11.82-.66,23.39-2.58,34.46-6.95l.74-.79-.06,0c1.23-.09,2.51-.08,3.06-1.53l-.06,0a2.14,2.14,0,0,0,2.31-.78l-.05,0c2.47-.85,5.15-1.25,7.11-3.23.11-.66.21-1.32.31-2,.38-1.66-.45-3.15-.73-4.71.38-.39.93-.67.83-1.36.47-1-.42-2.51,1.38-3.42.72,2.17,2,3.82,4.63,3.3-.82,1.87-2.47,3.83-1.29,5.8s2.56-.86,4.18-.5c2.3.51,1.9-1.32,1.45-2.57a4.11,4.11,0,0,0-3.95-2.79c2.67-.57,4.69-1.87,5-5.18,1.61,1.51,2.17,4,4.64,2.49s1.18-3.45.67-5.26a4.22,4.22,0,0,0-1.7-2.75c1.31-1.79,2.39-1.65,2.9.51.36,1.53.48,3.11,1.57,4.36l0,1.48c-1.79,2.89-5.76,4.71-4.42,9.12,0,.21-.05.42-.08.63-2.61,2.47-2.74,5.63-3.09,9.75,2.4-3.55,4.46-6.17,3.08-9.76h.62c1.23,1.18,2.82.78,4.27.93,1.68.18,3.54-.43,4.84,1.22-.94,2.26-1.49,4.42,1.37,5.78-.22.25-.44.51-.67.76,2.46.68,4.5-.45,6.45-1.62,1.51-.92,1.69-2.13,1.31-4.09-1.24-6.36-3.88-12.25-5.61-18.44-.55-1.38-.34-3.16-2.06-3.94l-.07-.12a5.7,5.7,0,0,0-1.36-4.54l-.77-1.47c-.07-1,.12-2.09-.75-2.89-.47-1.06-.61-2.29-1.61-3.07l0,.07a2.43,2.43,0,0,0-.77-2.32l0,.06a12.84,12.84,0,0,0-2.29-5.32l.05.07-.22-1.09c.13-.79.25-1.58.38-2.37C338,27,341.47,38.47,345.5,49.73q1.83,5.1,3.42,10.3c.76,2.46,1,4.92-1.2,6.91-2.05.78-4.07,1.68-6.16,2.31a2.72,2.72,0,0,0-2.11,3c-1.91,2.51-4,4.69-7.43,5.05-2,.21-2.58,1.68-2.27,3.54a24.54,24.54,0,0,1,.74,4.75c-.08,2.4-1.21,3.23-3.28,1.39-.59-1.14-1.18-2.27-1.76-3.41a5.62,5.62,0,0,1,2.35.61c2.05.93,1.06-.55.94-1.3-.63-.65-.16-1.86-1.17-2.32l0,.07c.1-.9.36-1.85-.79-2.32l0,.06c.2-3-1.5-5.41-2.33-8.09-.2-.65-.46-1.59-1.46-1.24s-.73,1.17-.53,1.9c.67,2.5,1.37,5,2.06,7.5-.07.51-.15,1-.22,1.53l-2.06-.88c-.23-3.77-.75-7.41-4.25-9.75-.55-.37-.78-1.53-1.67-1a1.71,1.71,0,0,0-.58,2.31,71.07,71.07,0,0,1,3.24,8c.51,1.86,1.67.89,2.55,1.17.17,1.52-1.8,2.21-1.49,3.78a5.43,5.43,0,0,0-.85,3A.47.47,0,0,0,319.12,87.18Zm-1.76-7.55a5.19,5.19,0,0,0-1.55-3.53,5.17,5.17,0,0,0,1.2,3.8,7.76,7.76,0,0,0,1.26,4.51A5.67,5.67,0,0,0,317.36,79.63Zm-8.51-4.32.24.11-.29,0c-.92-4.11-4.32-2.62-6.8-3.21C304.55,72.58,306.51,74.38,308.85,75.31Zm-8-.72a2.24,2.24,0,0,0-2.84-.85,60.63,60.63,0,0,1-10.58,2.37c-10.53,1.33-21.13,2-31.71,2.74-15,1-30,1.6-44.91.17-16-1.53-31.89-2.28-47.83.08a123.51,123.51,0,0,0-16.51,3.24c-.74.21-2,.43-1.57,1.64.27.82,1.28.61,2,.53,4-.44,7.92-1,11.89-1.42,12.52-1.4,25.08-2.63,37.7-1.93,10.33.58,20.68,2.59,31,2.2,16.43-.62,32.93-1.33,49.25-3.68A154.85,154.85,0,0,0,300.84,74.59Zm-24.33,8.26-.09-.68c-2.08,0-4.25-.41-6.2.07-10.75,2.64-21.81.81-32.69,2.55-8.4,1.34-17.18.27-25.8.26a7.2,7.2,0,0,1-3.26-.57c-3.78-1.79-7.82-.81-11.74-.69a2.8,2.8,0,0,0-2.5,2.85c0,1.6,1.48,1.54,2.49,1.67,3.44.44,7,1.39,10.33.93,8.57-1.18,17.13-1.16,25.72-1.12a54.54,54.54,0,0,0,9.28-.75c7-1.18,13.9-2.5,21.07-2.42C267.58,85,272.05,83.6,276.51,82.85ZM185,87.51c-3.21,1.57-6.7,1.8-10.12,2.41-1.12.2-2.31,2.7-1.47,3.23,1.66,1.07,2.25,4.33,4.85,3.29A65.55,65.55,0,0,0,186.39,92c.57-.33,1.39-.57,1.26-1.53C185.3,90.85,186.91,87.54,185,87.51Zm-14.14,3.24c0-1.45.16-2.53-1.43-2.87a12.12,12.12,0,0,1-5.07-3c-.79-.66-1.81-1.24-2.69-.46-1.09,1-.38,2.09.28,3,1.25,1.7,2.52,3.4,3.93,5,.72.8.84,2.84,2.5,2C169.81,93.69,171.35,92.58,170.83,90.75ZM311.11,70.16a19.65,19.65,0,0,1-2,10.23c1.66-.52,2.81-1,4-1.24,3.71-.75-.28-3.56,1.34-4.84C312,74.13,312.85,71.53,311.11,70.16ZM188.88,100.74c-.57-1,.79-3-1.25-3.09a2.51,2.51,0,0,0-2.72,2.8,3.05,3.05,0,0,0,2.68,3C189.64,103.69,188.4,101.73,188.88,100.74Zm138.67-31c-1,2.39-.19,4.38,1.22,5.23s3.76.88,5.84-1C331.4,73.76,329.68,71.65,327.55,69.75Zm-24.66-.47c1.89.77,4.11,0,5.38,1.89.43.64,1.13.27,1.48-.33.24-.43.35-1.07-.21-1.29C307.48,68.76,305.47,66.28,302.89,69.28Zm31.54-7.67c-.29,1.53-1.66,2.88-.59,4.4a2.39,2.39,0,0,0,2-.49C336.53,64.05,335.64,62.8,334.43,61.61Z"/><path class="cls-2" d="M245,74.17c-3,.71-6,.26-9,.44-1.91.11-2.9-1.08-3.86-3.29-2,5.9-6.17,4-9.58,3.8-15.24-.75-30.38-3.12-45.77-1.53-6.44.67-12.82,1.43-19.19,2.49-4.24.7-7.76,3.42-12.35,3.53-2.73.07-2.14,4-3,6.27-3.72-.14-7.45-.21-10.92-1.83-2-1.28-2.19-3-1.66-5.21,4.24-17.85,8.51-35.7,12.5-53.61,1.54-6.93,5.89-11.25,11.91-13.93A50.88,50.88,0,0,1,172.61,7Q197.3,5.8,221.89,3.12c4.79-.52,5-.25,5.32,4.71.21,2.73.44,5.46.66,8.2l-1,.07c-1.33-3.33-.16-7.15-2.27-10.37l.7,11.84c-2.46-1.47-1.06-3.84-1.24-5.77-.43-4.67-1.88-6.23-6.47-6.19A97,97,0,0,0,202.09,6.9c-6.68,1.12-13.57.62-20.41,1.35-7.61.81-15.24.85-22.54,3.47-3.67,1.31-7.7,1.87-9.48,6.34-.73,1.86,0,3.59-.76,5.42-3.16,8.18-3.84,16.93-5.45,25.47-.36,2,.77,3.82-.33,5.83-2.73,5-2.09,10.69-3,16.07-.37,2.25.43,3.21,3,2.42a104.36,104.36,0,0,1,12-3.13A79.94,79.94,0,0,1,167,68.8c4.94-.2,9.78-2.08,14.78-1a21.8,21.8,0,0,0,7.73.15,48.33,48.33,0,0,1,10.81.15c5.22.51,10.52,1,15.71-.51a27.89,27.89,0,0,0,16.37-4.31l-.06,0c2.38-.08,2.27-1.22,1.87-3.23C231.78,48,228.7,36,227.57,23.65c.59-5.76,4.36-5.54,8.54-4.55-.1,1.2-.93,2.38-.13,3.59,2.06,3.12,1,6.8,1.85,10.19,1.39,5.42,1.69,11.1,2.57,16.65.71,4.56,1.59,9.1,2.4,13.64A37.58,37.58,0,0,0,245,74.17Z"/><path class="cls-2" d="M313.26,55c.28,1.56,1.11,3,.73,4.71-4.45-.15-8.49,1.65-12.69,2.66l-10.08,3.45a23.83,23.83,0,0,0-12,.92,70.25,70.25,0,0,1-18.94,3.47c-7.25.28-6.9-5.62-8.83-9.88-1.45-3.22,1.33-3.94,2.88-5.37-5.54-3-5.51-8.32-6.25-13.28,0-.1.09-.2.13-.29l-.17.24a5.9,5.9,0,0,1-4-4.55c-.83-3.72-2.29-7.31-2.05-11.29.16-2.67.73-5.49-.7-8.06,7.06-.64,14.17-1.41,20.9-3.48,3.19-1,6.63,0,9.35-1.62a47.25,47.25,0,0,1,16-5.2c8.58-1.41,16.88-4.29,25.61-4.81a1.57,1.57,0,0,0,1.62-1.26l6.77-.93c1,1,2.13.78,3.28.33l.06.11a9.86,9.86,0,0,0,4.23,7.75l.14.14-.11.17c.09,2.77-.19,5.7,3,7.21a.19.19,0,0,1,.13.31c-.13.79-.25,1.58-.38,2.37-.68.52-.34.83.22,1.09l-.05-.07c.11,2.06.48,4,2.29,5.32l0-.06a2.39,2.39,0,0,0,.77,2.32l0-.07c.27,1,.54,2,.8,3,0,.77,0,1.54,0,2.31-1.21-1-.81-3.14-2.65-4a5.41,5.41,0,0,0-.86,5.87c2.06,4.31.91,8.73,1.26,13.09-1.09-1.25-1.21-2.83-1.57-4.36-.51-2.16-1.59-2.3-2.9-.51L298.4,49.19c-3.17-.15-6,1.2-9.09,1.69-10.73,2.22-21.6,3.73-32.24,6.43-2.53,1.69-.47,3.69-.18,5.43.48,2.92,2.27,4.16,5.41,3.27s6.53-1.55,9.81-2.26Zm4.52-28.19,7.77-1.09c1.43-.2,1.92-.85,1.38-2.31-1.89-5.14-3.81-10.27-5.5-15.47-.75-2.3-2-3.21-4.31-2.68-2-2-4.28-1-6.58-.59-4.48.78-8.46,3.45-12.91,3.82-6.11.5-11.82,2.54-17.71,3.8-8.8,1.89-17.25,5.25-26.37,5.86-1.23.08-4.28.35-3.77,3s.86,5.72,2.36,8.21c1.8,3,4,5,8.07,4.85s7.79-1,11.68-1.5c4.42-.58,8.88-1.22,13.19-2.05,7.08-1.37,14.35-.29,21.28-2.36C310.36,29.26,314,27.74,317.78,26.76Zm2.27,12.43c1.23-1.71,3.79.34,4.9-1.72,2.11-.29,4-1.3,2.94-3.58s.09-6.13-4.52-5.85c-8.46.52-16.49,3.42-24.89,4.23a32.34,32.34,0,0,0-9.8,2,21,21,0,0,0-7.61,1.29l-12.76,1.32c-.19-.84-.76-1.44-1.58-1.19-4.1,1.28-8.46.82-12.5,1.72-5.27,1.16-5.61,2.07-3.67,6.19a6.62,6.62,0,0,1,.51,2.16c.54,5.54,4.2,7.49,9.67,5.45,2.72-1,5.69-2.14,8.49-2,7,.38,13.28-2.65,20-3.51C294.53,45,300,44.56,305.13,43,310.06,41.54,315.43,41.82,320.05,39.19Zm-72.94-6.55c-.61,1.9-.9,3.28.59,4.83C248.06,35.73,249,34.37,247.11,32.64Zm0-3.6c-.48.7-.72,1.29.22,2.77C247.08,30.47,247.89,30,247.13,29Zm-.83-1.57a6.4,6.4,0,0,0,.21-1.07c0-.19-.2-.38-.31-.57a4,4,0,0,0-.29.93C245.9,26.94,246.11,27.13,246.3,27.47Z"/><path class="cls-1" d="M134.84,117.32l2.52-.4.32-.06c1.54-.09,2.17.68,1.53,2-.81,1.68-.68,4.45-3.24,4.48-10.88.13-21,5.32-32,4.76-3.59-.19-6.54,2.35-9.22,4.52-2.24,1.81-3.39,1.64-4.2-1.07-.63-3.65-2-7.19-1.51-11,.29-2.17-.91-3.12-3-3.4a17.26,17.26,0,0,1-3.19-1c-.93-1.17-.77-2.19.22-3.31a10.85,10.85,0,0,0,2.57-10.68c-.71-2.5.73-3.22,2.44-2.68,5.51,1.75,10.16-.4,14.86-2.7,3.36-1.64,6.9-1.1,10.24-.25a6.45,6.45,0,0,0,7.15-2.33c2.75-3.72,5.73-3.17,9.12-1.51-3.13,6.23-3.13,6.28.93,9.48,3.3-.85,6.29-.16,9.38,1.27,2.74,1.27,2.07,2.1.17,3.29-3.15,2.1-5.56,4.72-6.17,8.63a.36.36,0,0,0-.27.27c-.53.36-.48.74,0,1.13a.64.64,0,0,0,.45.46Zm-22.46,1.52c.47,1.09-1.11,1.19-1,2.07,1,.79,2.31-.54,3.27.5-.5.83-1.77,0-2.26,1.22,1.91-.24,4.58.5,4.47-2-.09-2.2-2.66-1.9-4.49-1.78.69-4.25-1.68-5.06-5.18-4.62a6.52,6.52,0,0,1,4.45-1.38c1.59.05,2.06-1,2.56-2.24,1.37-3.26-3-4.67-2.43-7.66a.72.72,0,0,0-.34-.08c-1.78.3-3.87-.11-5.54,2.72,2.29-1,4-1.51,5,.9-1.88.85-5.59-.7-4.7,3.64a29.38,29.38,0,0,1-1.87-4.57c-.29-1-1.46-1.2-1.52-.8-.23,1.78-1.69,4.61-.42,5.15,2.37,1,3.3,2.82,4.58,4.57l.21,1.36a3.56,3.56,0,0,0-4.47,3.77c.28,2.08,2.72,2.24,4.06,3.33.84.68,2.08-1.1,1.87-2.67C110.54,121.67,110.59,118,112.38,118.84Zm7.45-20.23-.45-.44-.12.35.61,0c.16,3.29,2.35,4.62,5.16,5.34.75.18,1.79,1,2.11-.34.24-1,.5-2.28-1.07-2.71C123.93,100.24,122.12,98.75,119.83,98.61Zm-24.75,9c-2.61.52-3.89,3.41-6.69,3.71-.84.09-.46,1.2,0,1.44,2.3,1.19,1.76,3.39,2.16,5.32.59,2.86,2,5,5.84,4.83-1.57-2.66-.37-4.54,1.11-6.34,2.1.44,3.36.27,2.21-2.42a19.94,19.94,0,0,1-1.09-4.62C98.26,107.27,97.07,106.76,95.08,107.62ZM123.39,116a71.58,71.58,0,0,1,7.48-2.35c2.9-.56,1.82-1.83.6-2.87-1.5-1.25-3.19-2.25-4.35-3.91s-3.12-2.65-4.43-2c-1.53.82-.65,3.11-.38,4.77a2.79,2.79,0,0,0,.91,1.6C124.7,112.42,124.26,113.81,123.39,116ZM108.28,102c-.34-.91-1.74.3-2.16-1.18s-1.93-.74-3-.32c-.71.29-.56,1-.44,1.61.33,1.77,1.54.74,2.33.66A26.12,26.12,0,0,0,108.28,102Zm-8.11,24.68-7.08-2.64C94.56,126.47,96,128.94,100.17,126.72Zm38.43-21.25-4.51.55c-.71.08-1.61,0-1.57,1a2.64,2.64,0,0,0,.69,1.63c.69.67,1.35,0,1.91-.4C136.08,107.58,137,106.8,138.6,105.47ZM102.12,126l1.35-1.29c-.23-.17-.53-.54-.68-.49a2.42,2.42,0,0,0-1.05.75C101.64,125.11,101.94,125.54,102.12,126Zm-2-2.22a10.54,10.54,0,0,0-1.36-.83s-.38.38-.34.49c.12.28.32.65.57.74S99.53,124,100.1,123.78Zm-8.3-.19-.13.14.2,0Z"/><path class="cls-1" d="M506.12,119.55c-2.81-1.59-4.27-5-8.25-5.2-2.22-.11-1.66-5.68.77-7.55,2-1.51,4.74-1.84,6.18-4.06,3-4.56,7.84-7,11.6-10.66,3.6-3.51,8.22-2,12.35-2.69,4.87-.8,5-.63,3.48-5.47-1.71-5.52-3.91-11-3.66-17.59,2.94,2.31,3.43,5.84,6.53,7.52,1.64-2.76,1.67-6.37,4.46-9.27a40.65,40.65,0,0,0,4.08,15.34c.93,1.83-.71,2.68-1.41,4.09,3.31.78,4.14,3.73,5.45,6.26,4.19,8.1,4.72,7.55-4.05,12-3.74,1.88-7.64,3.32-10.43,6.9-2.57,3.3-3.61,6.45-1.84,10.32-1.11,1.73-4.43,3-3.83,4.46,1.31,3.17-.69,3.61-2.4,4.65a11.09,11.09,0,0,1-5.59.93C516.33,124.5,510.81,122.58,506.12,119.55ZM546.59,91.1l-.29-.16.33.11,0,1.56c-2.45,0-3.57,2.73-5.93,3-3-.94-2.59-3.52-2.55-6-2.58,1.58-2.71,1.76-3.21,4.26-.42,2.08,1.61,8.27,3,8.39a6.51,6.51,0,0,0,6.42-3l0,.06c1.08.65,1.77.15,2.32-.77l-.06,0a1.18,1.18,0,0,0,1.56-.79l0,0c.47-.06.73-.29.63-.8,1.34-1.33-.08-2.09-.63-3l0,.08-.81-1.57,0,.06Zm-27,27.68-1,.74.41.4.72-1,.11-.33Zm4.55-15.72.28.1-.33,0c.27-1.42.24-3.36-1.34-3.22-1.93.17.19,2-.37,3-2.86-.49-4.68,2.07-7.23,2.47-.65.75-.82,1.5,0,2.25,3.34,6.37,4.6,6.81,9.69,3.44,1-.67,1.7-1.48,1.33-2.75-.21-.75-.13-1.81-1-2.1-2.41-.8-2.43-.74-2.13-2.65Zm-12.76,9.78c-.81-1.11-1.47-2.43-3.36-2.74.3,2.42,1.52,3,3.39,2.69,1.4,2.69,3.8,2.22,6.54,2.22C516.06,112.12,513.26,113.92,511.34,112.84ZM539,84.53c4.06-3.18,4.28-5.13.75-6.76-.11-.71-.22-1.43-.35-2.31-1.69,3.29-2.25,6.7-2.47,10.82C537.67,85.07,537.91,84.13,539,84.53ZM530,104.12a3.45,3.45,0,0,0-.09-1.15,2.83,2.83,0,0,0-3.51-2.48c-1.72.46-.46,2.05-.23,3.14a17.72,17.72,0,0,0,.81,2.87c.44,1.06.25,3,1.65,2.89,1.68-.19,1.11-2.18,1.37-3.44C530,105.71,530,105.45,530,104.12Zm2.1-13.52c-2.83-.4-5.48.6-8.19.7-.87,0-1.47.68-.67,1.47C524.59,94.15,530.69,92.67,532.05,90.6ZM504,116.19c1.61-3.51.6-6.3,1-9C504.1,109.88,502.08,112.45,504,116.19Zm14.89,6.8c-.32-.32-.54-.7-.77-.71-.62,0-.72.51-.69,1s-.06,1.11.67.83C518.43,124,518.6,123.41,518.88,123Z"/><path class="cls-1" d="M13.09,138.14c-2.38,2-3.86,1.31-4.93-1.44a13.83,13.83,0,0,1-.8-6.61c1.69-4.57,1.68-4.56-2.66-5.86-.83-.25-1.62-.6-2.43-.91-1.48-2-2.78-3.51,1-5.15C6,117,7.29,113.8,6.45,110.33c-1.24-5.12-1.19-5,3.86-4.49a23.52,23.52,0,0,0,10.56-.92,22.36,22.36,0,0,1,15.65.06,14.44,14.44,0,0,0,10.93-.43c2.52-1,5.15-2,8-1.2.79.22,1.83.48,1.84,1.57,0,.89-.86,1-1.55,1.37a17,17,0,0,0-3.59,1.95c-1.41,1.14-1.6,2.44-.45,4.2,1.34,2.07,2.51.62,3.35,0,3.09-2.32,5.79-2.92,8.88.2,1.54,1.56,1.84,2.31.11,3.75a41.61,41.61,0,0,0-3.59,3.79c-4.38,2.3-7.22,5.72-7.87,10.75a21.33,21.33,0,0,1-5.17,10.42c-1,1.19-2.66,2.79-2.75-.69a5.92,5.92,0,0,0,.82-5.35c-.81-2.69-2.79-3.3-5.55-2.42C35,134.44,30.26,137.5,24.6,135,20.27,133.06,16.44,134.34,13.09,138.14Zm9.47-22.08a.88.88,0,0,0,.4-1.22c0-.08-.48-.1-.48-.08a9.06,9.06,0,0,0-.19,1l-.3.46Zm8.74,2.8c.6.09.61-.39.73-.76-.11-1.47-1.12-1.53-2.24-1.42,1.3-1.78-.43-3.56,0-5.34l0-1.26,1.6-.18c1.5-.72,1.62-1,1-2.12-1.41-2.83-3.61-3.12-7-.94-1.09,1-3-1.76-3.64.7-.41,1.55.78,2.13,2.12,2.35,0,.25,0,.49,0,.74-.38.24-1.13.58-1.09.69A23.52,23.52,0,0,1,24,117.86c0,1.48,1.9,3.2,4.07,2.91,1.27-.17,3.59,1,3.26-2Zm-17.23,15,.53.47.24-.36-.68-.22c-1.23-1.23-2.77-3-4.35-1.58-1.42,1.3.84,2.2,1.65,3C13.52,137.32,12.59,133.18,14.07,133.87ZM7.29,115.79c1.27.57,2.55.11,3.83,0-.5,2.17-4.32,1.36-3.9,3.47s2.34,3.71,3.61,5.54a14.65,14.65,0,0,0,2.16,3c.72.63,1.51,2.35,2.92.74,1.11.06,2.15,0,2.82,1.31s2.12,2,3.54,2.56c2.65,1.07,3.19.21,2.26-2.23a3.88,3.88,0,0,1,3.51-.38c2.17.71,1.61-1,1.72-2.1,1.18,1,2.41,1.76,3.84.51.27-.24.43-1.09.26-1.25-1.43-1.34-2.6,0-3.85.5-.09,0-.14.2-.21.3-2.09-.46-2.88-2.56-4.52-3.59-.67-.42-.8-2.19-2.18-1-1.21,1.08-1.39,3.2-.35,3.51,2.52.73.82,2.27,1.15,3.37A6.28,6.28,0,0,1,19,126.57c-1-1.75-2.27-2.9-4.45-2.45.67-2.51.23-5-.21-7.46-.26-1.44-1-1.47-2-1,.15-1.26,2.34-2.47.38-3.73-1.49-1-2.28.83-3.28,1.5a4.44,4.44,0,0,0-2,2.46l-.57.76.3.17Zm31.06-8.51c-.4-.29-.81-.5-1.24-.07l.84.52c.47,2.69,4.18,2.44,4.66,5.13-3.14.24-1.26,2.1-1.11,3.41.09.79,1.5,1.81,0,2.3-2.18.73-1.9,2.87-1.69,3.89.58,2.78-.08,5.36-.3,8,.18.48.55,1,1,.79,3.71-1.76,7.69-3,11-5.62.53-.56,2.33.35,1.83-1-.95-2.63-.85-5.83-4.32-7.24-2.41-1-5.15-1.91-6.48-4.59,1.94-.14,2.9,1.72,4.51,2.24,1.05.35,2.27,1.92,3.19.39a2.64,2.64,0,0,0-1.34-3.77C45.41,110.19,42.22,107.92,38.35,107.28ZM55.77,120.9A19.73,19.73,0,0,0,62.43,116c.46-.49,1.38-.87.77-1.76-.48-.69-1.31-.63-2-.56C57,114.06,55.58,116,55.77,120.9Zm-5.63,12.27c-.55-.5.7-1.85-.88-1.53-1,.21-2.48.18-2.34,1.7a1.59,1.59,0,0,0,1.9,1.34C49.53,134.49,50.73,134.4,50.14,133.17Z"/><path class="cls-1" d="M357.17,105.09c-1-3.89-1-7.9-1.21-11.86-.12-1.92.5-4.13,3.5-3,.68.26,1.18-.13,1.65-.56a3.25,3.25,0,0,0,.52-.53c4.1-6.24,10.32-7.91,17.22-7.73,2.58.07,3.09-1.13,3.41-3.22.88-5.79,1.9-11.55,2.89-17.32a8.41,8.41,0,0,1,2.22-4.79c.75,3,1.38,5.44,2.05,8.08,2-.67,2.19-3.17,4.68-3.76-.53,4.91,2.48,9.7-.66,14.42-.88,1.31-.18,2.27.4,3.4s1.46,2.34,1.3,3.81l-1.58-.68c0-.63,0-1.28-.75-1.51a1.34,1.34,0,0,0-.77-1.43c-.78-1.57-1.57-1.84-3.14-.62-2.6,2-1.81,5.88-3.78,7.5-2.92,2.4-.95,4.11-.37,6.18a12.42,12.42,0,0,1,.47,1.42c.41,2.72,2.19,3.07,4.39,2.42,2.86-.84,5.68-1.82,8.51-2.77,2.26-.76.63-1.48-.05-2.2,0-.48-.2-.82-.76-.75-.08-1.83-.36-3.57-2.26-4.49l.06-3.1c2.73,2.78,3.81,6.54,5.72,9.8.81,1.38-.32,2.07-1.45,2.41-2.61.81-5.22,1.62-7.88,2.24s-3.32,2.22-2.19,4.64a20.45,20.45,0,0,1,1.58,3.36,3.41,3.41,0,0,1-4.15,4.4c-1.12-.23-1.95-.29-2.39.95a3.32,3.32,0,0,0-.59,3.68c.45,1.15.56,2.52-1.45,2.34-.16-.89.7-2.19-.55-2.59-1.08-.35-1.55,1-2.22,1.62-1,.95-.49,2-.33,3.1-.15.18-.46.46-.42.52.31.48.59.19.84-.1.95-.81,1.22-2.32,2.7-2.58.52,2.32-1.9,3.41-2.23,5.37-2.15-.91-3.43,1.29-5.28,1.49A52.53,52.53,0,0,1,357.17,105.09Zm21.42-11c.68-.16,1.61.17,2-.62.23-.53-.41-.93-.89-.93-.95,0-1.19.68-1.09,1.52l-.36.28c.08,0,.18,0,.22,0A1.3,1.3,0,0,0,378.59,94.09Zm9-19.46c.14.4,0,1,.75.89a.33.33,0,0,0,.23-.24c.13-.74-.5-.6-.89-.74.19-.85-.66-2.16.88-2.41,1.3-.22,1.61-1,.79-1.71-1.31-1.13-.55-2.81-2.05-5.07-.07,4.48-1.44,7.77-1.06,11.79C386.79,76,387.16,75.33,387.54,74.63ZM373.83,91.92l2.32-3.82c-2.84.41-3.93,1.36-2.31,3.81.12,2.69,1.73,4.81,2.78,7.14.41.91.46,2.38,1.89,2.4.88,0,.9-1,1.26-1.66A2.12,2.12,0,0,0,379,96.6c-1.35-.6-1.67-1.56-2.1-2.71C376.4,92.53,375.5,91.57,373.83,91.92Zm-2,7.44c-2.34,0-3.72,1.39-2.83,3.46.77,1.79,2.44,4.16,4.48,3.68.92-.22,4.66-2.08,2.44-5.21a23.42,23.42,0,0,0-1.24-2.69c-.45-.75-.42-2.32-1.76-1.89A1.78,1.78,0,0,0,371.87,99.36Zm-3.48-15.19c-.57,4.77-.76,4.49-4.58,7.14-1.66,1.14-4.72,1-4.81,4.16-.05,1.8-.4,3.6-.62,5.41a2.43,2.43,0,0,0,1.27-1.43c1-2.43,1.55-4.78,5.22-5.23,1.85-.22,3.62-3.26,4.88-5.36C370.46,87.69,368.93,86.31,368.39,84.17Zm-2.84,16.58c-2.08,2.06-1.21,4.13-.71,6.16.25,1,.88,2,2,1.94,1.89-.14.34-1.53.64-2.3C368.36,104.23,367.11,102.55,365.55,100.75ZM377.3,85.13a12.68,12.68,0,0,1,2.22.31c1.09.3,2,.49,2-1.07.05-1.39-.78-1.65-1.91-1.55a14.53,14.53,0,0,0-4,.5c-1.27.51-3.81-.44-3.65,1.29.23,2.52,2.36-.32,3.54.49C375.75,85.27,376.22,85.13,377.3,85.13Zm-.17,32.38c.05-.82-.32-1.21-1.09-1.07-.94.17-2.15.29-2.26,1.43-.06.69.94,1.09,1.68,1.18C376.61,119.2,376.84,118.29,377.13,117.51Zm2.44-26.26c.48-.22,1.24.08,1.09-.73a1,1,0,0,0-.8-.53c-.46,0-1.08.1-1,.77C378.86,91,379.34,91.1,379.57,91.25Zm-2.35-2,.25.13,0-.23Z"/><path class="cls-1" d="M428.86,124.81c-4.15-2.73-3.65-7.78-5.61-11.61-.54-1,.65-3.92,2-4.09,8.21-1.07,11-9.17,17.23-12.78.61-.35,1-1.25,1.87-.84,3.27,1.6,6.33-.58,9.51-.46,2,.08,2.69-.71,2.8-2.87.33-6.33.74-12.69,3.33-18.64.44-1,.55-2.19,1.74-3.07,1.53,3.65.95,7.91,3.53,11.09,8.3-4.2,8.3-4.2,10.47.18,2.81,5.68,2.6,6.47-2.3,8.87a3.13,3.13,0,0,1-.37-.6c-.38-1.23,1-3.07-.69-3.67-1.35-.48-2.87.42-4.17,1.24s-1.56,1.22-.41,2.72a87.56,87.56,0,0,1,5.88,9.43c1.3,2.22.72,3.76-1.55,5.25-4.64,3-10.24,4.57-13.94,9.08-2.32,2.83-3.9,5.74-2.59,9.5.67,1.69-.24,2.78-1.31,3.95-1.85,2-3.55,4.15-5.31,6.24l-1.36,0c-3.37-1.25-6.81-2.35-10.08-3.82-2.75-1.23-5.89-2-7.47-5.07a15.62,15.62,0,0,1,6.19.68c.76,2.58,2.73,3.6,5.18,4a4.76,4.76,0,0,0,3.61,1c-.7-1.58-2.13-1.12-3.19-1.51-2.78-2.05-.8-4.27-.24-6.45l0,0c2.84-.37.16-2.12.77-3,2,0,2.09,2.63,4.58,2.86-1.54-2.1.35-3.39.67-5.08l-.06,0c.72-.53,2.21.42,2.34-1.14,0-.55-.23-1.56-.53-1.63-2.65-.61-2.5-2.17-1.68-4.15a1.24,1.24,0,0,0-2-1.52c-2.43,2.51-5.55,4.68-4.71,8.92l-3.81,1.62-1.62.16c.1-1.95.1-3.92.33-5.85s-.29-3.35-2.32-3.91c.16-1,.22-2.23-.8-2.54s-1.28,1-1.68,1.7c-1.5,2.62-2.16,5.55-3.15,8.37-1.09,3.11-.41,5.28,2.41,6.86a.82.82,0,0,1-.38.59Zm27-11.19.46-.54-.35-.22c-.06.23-.12.47-.17.7l-.11.3Zm7.45-19.56c-1.88,0-1.32,2.72-3.08,2.8-3.29.17-3.46.45-2.12,3.39a29.33,29.33,0,0,1,1.8,4.5c.9,3.44,2.62,4.3,5.61,2.16a13.84,13.84,0,0,1,2-1c5-2.62,5-2.62,2.09-7.4-.12-.2-.39-.3-.65-.5-1.16,1.63-2.36,3.57-4.72,2.22-2.08-1.19-1.57-3.13-.8-5a4.27,4.27,0,0,0,.21-.72c3.67-.51,3.67-.51,2.86-3.19C465.12,91.88,463.65,92.31,463.31,94.06Zm-9.1,16.06a15.56,15.56,0,0,0,0-2.27,3.82,3.82,0,0,0-5.22-3.18c-2.66,1,0,2.61-.2,4a4.12,4.12,0,0,0,.75,2c.69,1.38.54,3.66,3.18,3C454.9,113.14,453.76,111.31,454.21,110.12Zm-13.61-10c-1.52,1-3,1.25-3.11,3-.11,1.36.77,2.47,1.78,2.34,1.89-.24,3.85-1.66,4.19-3.26C443.94,100,440.23,103.45,440.6,100.14Zm14.48-3.78a16.72,16.72,0,0,0-5.76,1.44,1.46,1.46,0,0,0-.89,1.51c0,.52.24.81.86,1C452.12,101,454.27,99.66,455.08,96.36ZM463.69,82c-.72,2.55-2,4.52-.52,6.6.33.47,1.08-.14,1.52-.62C466.69,85.78,464.93,84.25,463.69,82Zm-6.39,22.13q.66,2.92,1.31,5.83l.92-.21C459.25,107.75,459,105.72,457.3,104.15Zm-8.8,28.43c-.77-2.73-1.27-4.53-1.78-6.33C446.33,128.3,445.83,130.39,448.5,132.58ZM436,107.8c.43-.46,1.22-.91,1.33-1.5.22-1.11-.84-.86-1.49-.91s-1.36.08-1.35.83S435,107.53,436,107.8ZM455,109a6,6,0,0,0,.92.51c.05,0,.36-.4.31-.51a3.68,3.68,0,0,0-.58-.75Z"/><path class="cls-3" d="M190.19,94.77c-1.14-3,1.08-3.61,3-4.41a2.37,2.37,0,0,1,1.12,0c12.6,1.55,25.14-1.08,37.72-.66,7.07.24,13.8-2.46,20.77-2.54,17.25-.22,33.8-4.6,50.56-7.8,1.38-.27,4.81-2.27,3.56,2.36-.35,1.29,1,1,1.82.74,2.15-.76,4.45-3,6.5-1.44,1.62,1.24,1.61,4.06,2.06,6.26a5,5,0,0,0,.7,1.31c-1.71,1.88-3,2.06-3.59-.85-.61-3.21-2.25-3.92-5.36-2.86-1.82.62-4.19,2.24-5.89-.78-.52-.94-1.88,0-2.78.17-9.48,2.07-18.92,4.29-28.4,6.34a81.27,81.27,0,0,1-16.66,1.82c-12.59.07-25,1.8-37.53,2.91-6.74.59-13.4-1.12-20.15-.57C195.2,95,192.69,94.79,190.19,94.77Z"/><path class="cls-1" d="M314.81,1.31a1.57,1.57,0,0,1-1.62,1.26c-8.73.52-17,3.4-25.61,4.81a47.25,47.25,0,0,0-16,5.2c-2.72,1.58-6.16.64-9.35,1.62-6.73,2.07-13.84,2.84-20.9,3.48l-5.19,1.42c-4.18-1-8-1.21-8.54,4.55-.87-2.46-.29-5-.67-7.55l1-.07c15.46,1,30.21-2.66,44.82-7a246.37,246.37,0,0,1,36.9-7.72A39.5,39.5,0,0,1,314.81,1.31Z"/><path class="cls-3" d="M357.17,105.09a52.53,52.53,0,0,0,17.65,17.58c-4.5,1.25-8.46-.78-12.38-2.34-4.47-1.78-8.73-4.08-13.07-6.18-1.21-.58-4.07-6.62-3.31-7.34a6.4,6.4,0,0,1,6.74-1.51C354.34,105.84,355.78,106.77,357.17,105.09Z"/><path class="cls-3" d="M506.12,119.55c4.69,3,10.21,5,13.44,10a60,60,0,0,1-18.44.15c-2.15-.28-4.58-1.8-7.06-2.34-1.16-.25-2.69-.37-2.78-2s1.2-2.55,2.38-3a27,27,0,0,1,9-1.9C503.87,120.3,505.22,120.81,506.12,119.55Z"/><path class="cls-3" d="M430.05,124.87c1.58,3,4.72,3.84,7.47,5.07,3.27,1.47,6.71,2.57,10.08,3.82-.54.27-1.09.76-1.62.76-9.39-.12-18.91,1-28-2.69-1.22-.5-2.81-.36-2.68-2.39s1.74-1.9,3.12-2.44c3.37-1.33,7.06-.9,10.4-2.19l1.13,0Z"/><path class="cls-3" d="M131.39,84.05c3.47,1.62,7.2,1.69,10.92,1.83,4.3.46,8.59,1,12.9,1.34.91.08,2.14.2,2.34-1.22.1-.77,0-1.61,1.18-1.23.7.23.62,1,.79,1.56.54,1.82-.85,2.72-1.76,3.85s-1.72,2.11-2.59,3.16c-4.56-3.85-10.14-2.56-15.32-2.67a21.28,21.28,0,0,1-6.52-.72C129.6,88.68,129.19,87.44,131.39,84.05Z"/><path class="cls-3" d="M525.15,128.57c1.71-1,3.71-1.48,2.4-4.65-.6-1.46,2.72-2.73,3.83-4.46,2.83,1.58,5.7,2.83,9.11,2.48a2.53,2.53,0,0,1,2.84,2.38c.14,1.44-1,2.23-2.19,2.64a8.63,8.63,0,0,1-3.23.75C533.6,127.31,529.42,128.69,525.15,128.57Z"/><path class="cls-3" d="M13.09,138.14c3.35-3.8,7.18-5.08,11.51-3.15,5.66,2.51,10.35-.55,15.29-2.11,2.76-.88,4.74-.27,5.55,2.42a5.92,5.92,0,0,1-.82,5.35c-2.77-2.69-4.83-3.13-9.31-2.52a14,14,0,0,1-6.64-.37,17.85,17.85,0,0,0-13.4.19A7.39,7.39,0,0,1,13.09,138.14Z"/><path class="cls-3" d="M382.31,115.84c2,.18,1.9-1.19,1.45-2.34a3.32,3.32,0,0,1,.59-3.68c3.46,1.75,4.48,6,8.08,7.77,1.69.84.46,4.29-1.5,4-3.64-.58-7.26.57-10.83-.39.33-2,2.75-3.05,2.23-5.37Z"/><path class="cls-3" d="M449,133.73c1.76-2.09,3.46-4.23,5.31-6.24,1.07-1.17,2-2.26,1.31-3.95,1.6.06,3.64.09,4.36,1.36s3.52,2.24,2.18,3.68-2.31,4.23-5.11,4.42S451.64,133.49,449,133.73Z"/><path class="cls-3" d="M52.54,130.92c.65-5,3.49-8.45,7.87-10.75.61,1.77,4.11.14,3.52,2.27a7.86,7.86,0,0,1-4.23,5.38C57.3,128.82,54.93,129.88,52.54,130.92Z"/><path class="cls-3" d="M82.88,116.12a17.26,17.26,0,0,0,3.19,1c2.08.28,3.28,1.23,3,3.4-.5,3.83.88,7.37,1.51,11-1.67-.25-1.86-1.8-2.53-2.91-1.88-3.15-2.57-6.88-4.88-9.83A2.14,2.14,0,0,1,82.88,116.12Z"/><path class="cls-3" d="M2.27,123.32c.81.31,1.6.66,2.43.91,4.34,1.3,4.35,1.29,2.66,5.86a11.42,11.42,0,0,0-5-2.9c-1.07-.27-2.32-.58-2.36-1.91S1.17,123.59,2.27,123.32Z"/><path class="cls-3" d="M130.41,102.14c-4.06-3.2-4.06-3.25-.93-9.48,2.62.16,3.21,1.54,2.2,3.78C130.86,98.26,129.89,100,130.41,102.14Z"/><path class="cls-3" d="M133.79,115.33c.61-3.91,3-6.53,6.17-8.63A7.11,7.11,0,0,1,133.79,115.33Z"/><path class="cls-3" d="M175.07,102.11c2.49-4.06,3.09-4.2,6.73-1.32,1.45,1.15,2.77,2.47,4.14,3.71C182.32,103.7,178.94,101.8,175.07,102.11Z"/><path class="cls-3" d="M320.1,83.59c-.31-1.57,1.66-2.26,1.49-3.78l0,0c.6.07.85-.19.77-.78l0,0,2.06.88.08-.08c-.51,1.05,0,1.72.83,2.26l-.08,0,.16.72a2.24,2.24,0,0,0,.1.68c.58,1.14,1.17,2.27,1.76,3.41a2.26,2.26,0,0,1-2.73-1.17A4.51,4.51,0,0,0,320.1,83.59Z"/><path class="cls-3" d="M339.45,72.24a2.72,2.72,0,0,1,2.11-3c2.09-.63,4.11-1.53,6.16-2.31.8,3.61-2,3.91-4.29,4.71A8.51,8.51,0,0,1,339.45,72.24Z"/><path class="cls-1" d="M329.15,8.57A9.86,9.86,0,0,1,324.92.82,17.82,17.82,0,0,1,329.15,8.57Z"/><path class="cls-1" d="M332.15,16.09c-3.16-1.51-2.88-4.44-3-7.21A33.38,33.38,0,0,1,332.15,16.09Z"/><path class="cls-1" d="M324.86.71c-1.15.45-2.27.66-3.28-.33C322.71.19,323.88-.53,324.86.71Z"/><path class="cls-3" d="M81.27,116.47a2.49,2.49,0,0,1-.58-.07c-.09,0-.2-.25-.17-.29a1.5,1.5,0,0,1,.37-.28Z"/><path class="cls-3" d="M319.12,87.18a.47.47,0,0,1,.13-.56,3.76,3.76,0,0,1,.13.48S319.21,87.15,319.12,87.18Z"/><path class="cls-3" d="M133.5,116.73c-.46-.39-.51-.77,0-1.13C133.51,116,133.5,116.36,133.5,116.73Z"/><path class="cls-3" d="M134.84,117.32l-.89-.13Z"/><path class="cls-3" d="M137.68,116.86l-.32.06C137.39,116.5,137.48,116.42,137.68,116.86Z"/><path class="cls-4" d="M236.11,19.1l5.19-1.42c1.43,2.57.86,5.39.7,8.06-.24,4,1.22,7.57,2.05,11.29a5.9,5.9,0,0,0,4,4.55l0,.05c.74,5,.71,10.28,6.25,13.28-1.55,1.43-4.33,2.15-2.88,5.37,1.93,4.26,1.58,10.16,8.83,9.88a70.25,70.25,0,0,0,18.94-3.47,23.83,23.83,0,0,1,12-.92,3.25,3.25,0,0,1-.33.61l-2.85.36c1.27,0,2.11.22,2.81-.41a21.89,21.89,0,0,0,10.44-4c4.21-1,8.25-2.81,12.7-2.66-.1.66-.2,1.32-.31,2-2.56.65-5.23,1.08-7.11,3.23l.05,0a2.42,2.42,0,0,0-2.31.78l.06,0a3.94,3.94,0,0,0-3.06,1.53l.06,0c-.36.15-1.35-.28-.74.79-11.07,4.37-22.64,6.29-34.45,6.95-4.28.47-8.57-.78-12.85.08-8.23-1.36-6.78-.67-9.1-9.13-.27-1,.21-2.36-1.43-2.6-.81-4.54-1.69-9.08-2.4-13.64-.88-5.55-1.18-11.23-2.57-16.65-.87-3.39.21-7.07-1.85-10.19C235.18,21.48,236,20.3,236.11,19.1Z"/><path class="cls-5" d="M300.84,74.59a154.85,154.85,0,0,1-24.18,5.09c-16.32,2.35-32.82,3.06-49.25,3.68-10.28.39-20.63-1.62-31-2.2-12.62-.7-25.18.53-37.7,1.93-4,.44-7.92,1-11.89,1.42-.69.08-1.7.29-2-.53-.39-1.21.83-1.43,1.57-1.64A123.51,123.51,0,0,1,163,79.1c15.94-2.36,31.87-1.61,47.83-.08,15,1.43,29.94.85,44.91-.17,10.58-.73,21.18-1.41,31.71-2.74A60.63,60.63,0,0,0,298,73.74,2.24,2.24,0,0,1,300.84,74.59Z"/><path class="cls-6" d="M298.4,49.19l30.71-6.48a4.22,4.22,0,0,1,1.7,2.75c.51,1.81,1.67,3.79-.67,5.26s-3-1-4.64-2.49c-.32,3.31-2.34,4.61-5,5.18a.24.24,0,0,0-.39.06c-2.64.52-3.91-1.13-4.63-3.3-1.8.91-.91,2.38-1.38,3.42a21.14,21.14,0,0,0-5.53.62c-4.35.95-8.76,1.66-13.15,2.46l-.21-.2C295.14,53.55,298,51.89,298.4,49.19Z"/><path class="cls-2" d="M276.51,82.85c-4.46.75-8.93,2.15-13.39,2.1-7.17-.08-14.1,1.24-21.07,2.42a54.54,54.54,0,0,1-9.28.75c-8.59,0-17.15-.06-25.72,1.12-3.34.46-6.89-.49-10.33-.93-1-.13-2.5-.07-2.49-1.67a2.8,2.8,0,0,1,2.5-2.85c3.92-.12,8-1.1,11.74.69a7.2,7.2,0,0,0,3.26.57c8.62,0,17.4,1.08,25.8-.26,10.88-1.74,21.94.09,32.69-2.55,1.95-.48,4.12-.07,6.2-.07Z"/><path class="cls-3" d="M295.41,56.67c4.39-.8,8.8-1.51,13.15-2.46a21.14,21.14,0,0,1,5.53-.62c.1.69-.45,1-.83,1.36l-41.15,8.8c-3.28.71-6.58,1.34-9.81,2.26s-4.93-.35-5.41-3.27c-.29-1.74-2.35-3.74.18-5.43a30.34,30.34,0,0,0,1,3.95c1.32,3.45,5.36,4.24,7.63,1.24,1.51-2,3-3.54,5.54-3.78l.21.17c0,1.21-1.3,2.11-.75,3.7a70,70,0,0,1,8.6-1.72c6.31-.5,8.49-4.86,10.05-10,3-.49,5.92-1.84,9.09-1.69-.45,2.7-3.26,4.36-3.2,7.28-.07.14-.14.29-.22.43Z"/><path class="cls-4" d="M333.58,47.58c-.35-4.36.8-8.78-1.26-13.09a5.41,5.41,0,0,1,.86-5.87c1.84.82,1.44,2.92,2.65,4h0c.54,1.84.77,3.81,2.24,5.24h0c-.31,3,2,5.55,1.49,8.58-.33,3.71,1.6,6.94,2.27,10.44.46,2.39-.26,3-2.44,2.39A44.57,44.57,0,0,0,329.86,58c.21-2.31,1.95-3.45,3.54-4.78s3-2.63.22-4.16Z"/><path class="cls-5" d="M185,87.51c1.94,0,.33,3.34,2.68,2.92.13,1-.69,1.2-1.26,1.53a65.55,65.55,0,0,1-8.16,4.48c-2.6,1-3.19-2.22-4.85-3.29-.84-.53.35-3,1.47-3.23C178.27,89.31,181.76,89.08,185,87.51Z"/><path class="cls-2" d="M339.58,46.42c.51-3-1.8-5.58-1.49-8.58l1.47,1.43.07.12c-.15,1.56.57,2.9,1.08,4.3q2.79,8.14,5.56,16.28c.9,2.63.41,4.67-2.5,5.62-1.18.39-2.37.75-3.56,1.13-2.86-1.36-2.31-3.52-1.37-5.78,2-.19,3.82.73,6.8,1.28C342.2,56.87,342.28,51.19,339.58,46.42Z"/><path class="cls-5" d="M170.83,90.75c.52,1.83-1,2.94-2.48,3.64-1.66.8-1.78-1.24-2.5-2-1.41-1.57-2.68-3.27-3.93-5-.66-.9-1.37-2-.28-3,.88-.78,1.9-.2,2.69.46a12.12,12.12,0,0,0,5.07,3C171,88.22,170.86,89.3,170.83,90.75Z"/><path class="cls-5" d="M321.59,79.81c-.88-.28-2,.69-2.55-1.17a71.07,71.07,0,0,0-3.24-8,1.71,1.71,0,0,1,.58-2.31c.89-.49,1.12.67,1.67,1,3.5,2.34,4,6,4.25,9.75l0,0c-.77-.25-.83.2-.77.78Z"/><path class="cls-5" d="M339.58,46.42c2.7,4.77,2.62,10.45,6.06,15.8-3-.55-4.81-1.47-6.8-1.28-1.3-1.65-3.16-1-4.84-1.22-1.45-.15-3,.25-4.27-.93a5.32,5.32,0,0,1,0-.69l.09-.1a44.57,44.57,0,0,1,9.55,1.25c2.18.58,2.9,0,2.44-2.39C341.18,53.36,339.25,50.13,339.58,46.42Z"/><path class="cls-3" d="M340.21,66.72c1.19-.38,2.38-.74,3.56-1.13,2.91-1,3.4-3,2.5-5.62q-2.76-8.14-5.56-16.28l1-.36c1.73,6.19,4.37,12.08,5.61,18.44.38,2,.2,3.17-1.31,4.09-1.95,1.17-4,2.3-6.45,1.62C339.77,67.23,340,67,340.21,66.72Z"/><path class="cls-3" d="M311.11,70.16c1.74,1.37.88,4,3.32,4.15-1.62,1.28,2.37,4.09-1.34,4.84-1.2.24-2.35.72-4,1.24A19.65,19.65,0,0,0,311.11,70.16Z"/><path class="cls-2" d="M320.1,53.47a.24.24,0,0,1,.39-.06,4.11,4.11,0,0,1,3.95,2.79c.45,1.25.85,3.08-1.45,2.57-1.62-.36-3,2.48-4.18.5S319.28,55.34,320.1,53.47Z"/><path class="cls-5" d="M242.8,63.17c1.64.24,1.16,1.61,1.43,2.6,2.32,8.46.87,7.77,9.1,9.13l0,.13c-2.83.28-5.74,1.3-8.32-.86A37.58,37.58,0,0,1,242.8,63.17Z"/><path class="cls-5" d="M324.58,78.43c-.69-2.5-1.39-5-2.06-7.5-.2-.73-.38-1.58.53-1.9s1.26.59,1.46,1.24c.83,2.68,2.53,5.11,2.33,8.09Z"/><path class="cls-2" d="M333.62,49.06c2.79,1.53,1.23,2.94-.22,4.16s-3.33,2.47-3.54,4.78l-.09.1a5.58,5.58,0,0,0-.57.08C327.86,53.77,331.83,52,333.62,49.06Z"/><path class="cls-5" d="M188.88,100.74c-.48,1,.76,3-1.29,2.75a3.05,3.05,0,0,1-2.68-3,2.51,2.51,0,0,1,2.72-2.8C189.67,97.73,188.31,99.74,188.88,100.74Z"/><path class="cls-3" d="M327.55,69.75c2.13,1.9,3.85,4,7.06,4.26-2.08,1.85-4.29,1.92-5.84,1S326.58,72.14,327.55,69.75Z"/><path class="cls-2" d="M329.11,58.8c1.38,3.59-.68,6.21-3.08,9.76.35-4.12.48-7.28,3.09-9.74Z"/><path class="cls-3" d="M302.89,69.28c2.58-3,4.59-.52,6.65.27.56.22.45.86.21,1.29-.35.6-1.05,1-1.48.33C307,69.28,304.78,70.05,302.89,69.28Z"/><path class="cls-2" d="M324.58,78.43l2.26-.07,0-.06c-.06.88-.23,1.8.79,2.32l0-.07c.05.94-.34,2.11,1.17,2.32.12.75,1.11,2.23-.94,1.3a5.62,5.62,0,0,0-2.35-.61,2.24,2.24,0,0,1-.1-.68c.08-.09.25-.24.23-.26a2.8,2.8,0,0,0-.39-.46l.08,0c.06-.88.14-1.76-.83-2.26l-.08.08C324.43,79.45,324.51,78.94,324.58,78.43Z"/><path class="cls-3" d="M334.43,61.61c1.21,1.19,2.1,2.44,1.38,3.91a2.39,2.39,0,0,1-2,.49C332.77,64.49,334.14,63.14,334.43,61.61Z"/><path class="cls-3" d="M253.3,75l0-.13c4.28-.86,8.57.39,12.85-.08A87.91,87.91,0,0,1,253.3,75Z"/><path class="cls-3" d="M308.85,75.31c-2.34-.93-4.3-2.73-6.85-3.15,2.48.59,5.88-.9,6.8,3.21Z"/><path class="cls-3" d="M306.57,64.87c1.88-2.15,4.55-2.58,7.11-3.23C311.72,63.62,309,64,306.57,64.87Z"/><path class="cls-3" d="M334.36,25.11c-1.81-1.32-2.18-3.26-2.29-5.32A12.84,12.84,0,0,1,334.36,25.11Z"/><path class="cls-4" d="M341.69,43.33l-1,.36c-.51-1.4-1.23-2.74-1.08-4.3C341.35,40.17,341.14,42,341.69,43.33Z"/><path class="cls-3" d="M317.37,79.63a5.7,5.7,0,0,1,.9,4.78A7.76,7.76,0,0,1,317,79.9,2.42,2.42,0,0,1,317.37,79.63Z"/><path class="cls-3" d="M317,79.9a5.17,5.17,0,0,1-1.2-3.8,5.19,5.19,0,0,1,1.55,3.53A3,3,0,0,0,317,79.9Z"/><path class="cls-4" d="M339.56,39.27l-1.47-1.43h0c0-1,0-2-.05-3l.17-.14A5.7,5.7,0,0,1,339.56,39.27Z"/><path class="cls-4" d="M335.83,32.58c0-.77,0-1.54,0-2.31l.81.1c.87.8.68,1.88.75,2.89l-.15.12-1.44-.79Z"/><path class="cls-3" d="M301.31,67.11a3.94,3.94,0,0,1,3.06-1.53C303.82,67,302.54,67,301.31,67.11Z"/><path class="cls-3" d="M336.68,30.37l-.81-.1c-.26-1-.53-2-.8-3C336.07,28.08,336.21,29.31,336.68,30.37Z"/><path class="cls-3" d="M335.1,27.37a2.39,2.39,0,0,1-.77-2.32A2.43,2.43,0,0,1,335.1,27.37Z"/><path class="cls-5" d="M327.61,80.62c-1-.52-.85-1.44-.79-2.32C328,78.77,327.71,79.72,327.61,80.62Z"/><path class="cls-5" d="M328.74,82.87c-1.51-.21-1.12-1.38-1.17-2.32C328.58,81,328.11,82.22,328.74,82.87Z"/><path class="cls-3" d="M304.31,65.61a2.42,2.42,0,0,1,2.31-.78A2.14,2.14,0,0,1,304.31,65.61Z"/><path class="cls-3" d="M332.12,19.86c-.56-.26-.9-.57-.22-1.09C332,19.14,332.05,19.5,332.12,19.86Z"/><path class="cls-4" d="M337.43,33.26l.77,1.47-.17.14-.75-1.49Z"/><path class="cls-3" d="M300.63,67.87c-.61-1.07.38-.64.74-.79Z"/><path class="cls-4" d="M329.2,58.18a5.58,5.58,0,0,1,.57-.08,5.32,5.32,0,0,0,0,.69h-.62v0Z"/><path class="cls-3" d="M308.8,75.37l.29,0-.24-.11Z"/><path class="cls-4" d="M216,67.64c-5.19,1.5-10.49,1-15.71.51A48.33,48.33,0,0,0,189.48,68a21.8,21.8,0,0,1-7.73-.15c-5-1.13-9.84.75-14.78,1a79.94,79.94,0,0,0-11.83,1.34,104.36,104.36,0,0,0-12,3.13c-2.55.79-3.35-.17-3-2.42.91-5.38.27-11.08,3-16.07,1.1-2,0-3.87.33-5.83,1.61-8.54,2.29-17.29,5.45-25.47.71-1.83,0-3.56.76-5.42,1.78-4.47,5.81-5,9.48-6.34,7.3-2.62,14.93-2.66,22.54-3.47,6.84-.73,13.73-.23,20.41-1.35a97,97,0,0,1,15.53-1.29c4.59,0,6,1.52,6.47,6.19.18,1.93-1.22,4.3,1.24,5.77a30.75,30.75,0,0,1,1,5.05c.48,12.59,3.88,24.66,6.48,36.87a5.57,5.57,0,0,1-.52,3.87l.06,0C226.7,63.94,221.78,67.42,216,67.64Zm11.84-8.06c-.5.13-.84.45-.73,1,0,.15.64.38.75.28.37-.3,1.56-.31.62-1.27.92-.53,2.57-.58,2.41-1.93-.35-3.16-.68-6.39-2.47-9.14C229.57,56.47,229.57,56.47,227.84,59.58Zm-17.19,3.17c-4.08,0-8.16-.06-12.25,0-5.54,0-11.13-.62-16.56,1.14-.56.31-1.46-.16-2,1.39,3.07-1.35,6.27,1.05,8.89-1.59.59-.15,1.23-.53,1.77-.41,6.89,1.47,13.84.56,20.77.62,4.59.38,9.12-.41,13.67-.86.74-.07,1.6-.41,1.24-1.36-.12-.32-1.17-.6-1.63-.43C220.06,62.89,215.24,61.74,210.65,62.75Zm-33,2c-6.31.13-12.67-.22-18.77,2C165.21,66.35,171.44,65.44,177.7,64.73Z"/><path class="cls-3" d="M232.31,63.36a5.57,5.57,0,0,0,.52-3.87c-2.6-12.21-6-24.28-6.48-36.87a30.75,30.75,0,0,0-1-5.05q-.35-5.93-.7-11.84c2.11,3.22.94,7,2.27,10.37.38,2.5-.2,5.09.67,7.55C228.7,36,231.78,48,234.18,60.13,234.58,62.14,234.69,63.28,232.31,63.36Z"/><path class="cls-3" d="M216,67.64c5.78-.22,10.7-3.7,16.37-4.31A27.89,27.89,0,0,1,216,67.64Z"/><path class="cls-4" d="M306.36,28.31c-6.93,2.06-14.2,1-21.28,2.35-4.31.83-8.77,1.47-13.19,2.05-3.89.51-7.69,1.37-11.68,1.5s-6.27-1.88-8.07-4.85c-1.5-2.49-1.84-5.43-2.36-8.21s2.54-3,3.77-3c9.12-.61,17.57-4,26.37-5.86,5.89-1.26,11.6-3.3,17.71-3.8,4.45-.37,8.43-3,12.91-3.82,2.3-.39,4.54-1.37,6.58.59L315.07,6c7.78,3.68,10,13.83,4.31,19.55A69.75,69.75,0,0,1,306.36,28.31Z"/><path class="cls-6" d="M288.68,34.27a32.34,32.34,0,0,1,9.8-2c8.4-.81,16.43-3.71,24.89-4.23,4.61-.28,3.53,3.67,4.52,5.85s-.83,3.29-2.94,3.58c-2.45-1.07-4.76.21-7.12.44-1.35.13-2.46.33-2.25-1.58a.74.74,0,0,0,.26-.1c.05,0,0-.13.06-.2l-.31.31c-.25-.5-.51-1-.76-1.51l.48-.53-.35-.18-.12.72c-2,1.3-2.53,4-5.57,4.37-7.23.86-14.42,2.13-21.6,3.41-2.63.46-2.05-.73-1.47-2.19C287,38.37,288.6,36.63,288.68,34.27Z"/><path class="cls-6" d="M268.31,36.88l12.76-1.32c-.82,1.82-1.59,3.66-2.45,5.46-1,2.09-2.29,3.78-4.87,4.15-5.29.77-10.59,1.49-15.82,2.6-2.42.52-3.2-.52-3.73-2.39-.47-1.61-.22-3.55-2.1-4.51a3.41,3.41,0,0,1,2.49-1.39Z"/><path class="cls-6" d="M289.31,50.88c-1.56,5.13-3.74,9.49-10.05,10a70,70,0,0,0-8.6,1.72c-.55-1.59.75-2.49.75-3.7.16-.27.34-.54.49-.82,0,0-.16-.14-.24-.21l-.46.86c-2.55.24-4,1.78-5.54,3.78-2.27,3-6.31,2.21-7.63-1.24a30.34,30.34,0,0,1-1-3.95C267.71,54.61,278.58,53.1,289.31,50.88Z"/><path class="cls-3" d="M252.1,40.87c1.88,1,1.63,2.9,2.1,4.51.53,1.87,1.31,2.91,3.73,2.39,5.23-1.11,10.53-1.83,15.82-2.6,2.58-.37,3.87-2.06,4.87-4.15.86-1.8,1.63-3.64,2.45-5.46a21,21,0,0,1,7.61-1.29c-.08,2.36-1.67,4.1-2.48,6.16-.58,1.46-1.16,2.65,1.47,2.19,7.18-1.28,14.37-2.55,21.6-3.41,3-.36,3.61-3.07,5.57-4.37h0c.25.51.51,1,.76,1.51h0c-.21,1.91.9,1.71,2.25,1.58,2.36-.23,4.67-1.51,7.12-.44-1.11,2.06-3.67,0-4.9,1.72-4.51-.2-8.79,1.26-13.16,1.94-15.31,2.38-30.55,5.23-45.84,7.75-7.4,1.22-7.73.86-9.07-6.57A6,6,0,0,1,252.1,40.87Zm33.55-2.95c.17-.28.34-.55.48-.84,0,0-.16-.14-.24-.21-.14.29-.27.58-.41.88l-.25.44Zm-2.36,3.61c-.16.28-.33.54-.48.82,0,0,.17.13.25.2l.34-.91.26-.38Z"/><path class="cls-1" d="M252.1,40.87a6,6,0,0,0-.12,1.44c1.34,7.43,1.67,7.79,9.07,6.57,15.29-2.52,30.53-5.37,45.84-7.75,4.37-.68,8.65-2.14,13.16-1.94-4.62,2.63-10,2.35-14.92,3.83-5.16,1.54-10.6,2-15.88,2.68-6.74.86-13,3.89-20,3.51-2.8-.14-5.77,1-8.49,2-5.47,2-9.13.09-9.67-5.45a6.62,6.62,0,0,0-.51-2.16c-1.94-4.12-1.6-5,3.67-6.19,4-.9,8.4-.44,12.5-1.72.82-.25,1.39.35,1.58,1.19l-13.72,2.6A3.41,3.41,0,0,0,252.1,40.87Z"/><path class="cls-6" d="M319.38,25.52c5.68-5.72,3.47-15.87-4.31-19.55l2.05-.76c2.33-.53,3.56.38,4.31,2.68,1.69,5.2,3.61,10.33,5.5,15.47.54,1.46.05,2.11-1.38,2.31l-7.77,1.09Z"/><path class="cls-3" d="M319.38,25.52l-1.6,1.24c-3.74,1-7.42,2.5-11.42,1.55A69.75,69.75,0,0,0,319.38,25.52Z"/><path class="cls-3" d="M290.89,66.38a3.25,3.25,0,0,0,.33-.61l10.08-3.45a22,22,0,0,1-10.45,4Z"/><path class="cls-1" d="M247.11,32.64c1.91,1.73.95,3.09.59,4.83C246.21,35.92,246.5,34.54,247.11,32.64Z"/><path class="cls-1" d="M247.13,29c.76.95,0,1.43.22,2.77C246.41,30.33,246.65,29.74,247.13,29Z"/><path class="cls-1" d="M246.3,27.47c-.19-.34-.4-.53-.39-.71a4,4,0,0,1,.29-.93c.11.19.3.38.31.57A6.4,6.4,0,0,1,246.3,27.47Z"/><path class="cls-1" d="M248.05,41.58l.17-.24c0,.09-.08.19-.13.29Z"/><path class="cls-5" d="M106.88,114.51c-1.27-1.75-2.2-3.56-4.57-4.57-1.27-.54.19-3.37.42-5.15.06-.4,1.23-.22,1.52.8a29.38,29.38,0,0,0,1.87,4.57c-.89-4.34,2.82-2.79,4.7-3.64-1-2.41-2.68-1.87-5-.9,1.67-2.83,3.76-2.42,5.54-2.72a.72.72,0,0,1,.34.08c-.57,3,3.8,4.4,2.43,7.66-.5,1.2-1,2.29-2.56,2.24a6.52,6.52,0,0,0-4.45,1.38Z"/><path class="cls-5" d="M97.5,116.58c-1.48,1.8-2.68,3.68-1.11,6.34-3.79.12-5.25-2-5.84-4.83-.4-1.93.14-4.13-2.16-5.32-.46-.24-.84-1.35,0-1.44,2.8-.3,4.08-3.19,6.69-3.71Z"/><path class="cls-5" d="M123.39,116c.87-2.15,1.31-3.54-.17-4.71a2.79,2.79,0,0,1-.91-1.6c-.27-1.66-1.15-4,.38-4.77,1.31-.7,3.36.42,4.43,2s2.85,2.66,4.35,3.91c1.22,1,2.3,2.31-.6,2.87A71.58,71.58,0,0,0,123.39,116Z"/><path class="cls-5" d="M108.56,120.3c.21,1.57-1,3.35-1.87,2.67-1.34-1.09-3.78-1.25-4.06-3.33a3.56,3.56,0,0,1,4.47-3.77l0-.06c.37,1.57-.46,3.55,1.56,4.56Z"/><path class="cls-2" d="M97.5,116.58l-2.42-9c2-.86,3.18-.35,3.54,1.92a19.94,19.94,0,0,0,1.09,4.62C100.86,116.85,99.6,117,97.5,116.58Z"/><path class="cls-3" d="M119.83,98.61c2.29.14,4.1,1.63,6.24,2.22,1.57.43,1.31,1.72,1.07,2.71-.32,1.36-1.36.52-2.11.34-2.81-.72-5-2-5.16-5.34Z"/><path class="cls-5" d="M107.1,115.87c-.07-.46-.14-.91-.22-1.36l.27-.25c3.5-.44,5.87.37,5.18,4.62l0,0c-1.79-.84-1.84,2.83-3.82,1.46l0,.07c-.67-1.47.52-3.57-1.56-4.56Z"/><path class="cls-3" d="M112.33,118.88c1.83-.12,4.4-.42,4.49,1.78.11,2.47-2.56,1.73-4.47,2,.49-1.24,1.76-.39,2.26-1.22-1-1-2.29.29-3.27-.5-.07-.88,1.51-1,1-2.07Z"/><path class="cls-3" d="M108.28,102a26.12,26.12,0,0,1-3.23.77c-.79.08-2,1.11-2.33-.66-.12-.62-.27-1.32.44-1.61,1-.42,2.51-1.25,3,.32S107.94,101.13,108.28,102Z"/><path class="cls-5" d="M100.17,126.72c-4.19,2.22-5.61-.25-7.08-2.64Z"/><path class="cls-3" d="M138.6,105.47c-1.61,1.33-2.52,2.11-3.48,2.83-.56.43-1.22,1.07-1.91.4a2.64,2.64,0,0,1-.69-1.63c0-1,.86-1,1.57-1Z"/><path class="cls-2" d="M102.12,126c-.18-.46-.48-.89-.38-1a2.42,2.42,0,0,1,1.05-.75c.15,0,.45.32.68.49Z"/><path class="cls-2" d="M100.1,123.78c-.57.22-.91.47-1.13.4s-.45-.46-.57-.74c0-.11.29-.51.34-.49A10.54,10.54,0,0,1,100.1,123.78Z"/><path class="cls-3" d="M119.87,98.54l-.61,0,.12-.35.45.44Z"/><polygon class="cls-5" points="91.8 123.58 91.87 123.77 91.67 123.73 91.8 123.58"/><path class="cls-5" d="M523,103.54c-.31,1.9-.29,1.84,2.12,2.64.88.29.8,1.35,1,2.1.37,1.27-.32,2.08-1.33,2.75-5.09,3.37-6.35,2.93-9.69-3.44l0,0c.55-.64,2,.5,2-.72,0-1-.91-1.58-2-1.59l.05,0c2.55-.4,4.37-3,7.23-2.46Z"/><path class="cls-5" d="M544.34,99.29a6.51,6.51,0,0,1-6.42,3c-1.4-.12-3.43-6.31-3-8.39.5-2.5.63-2.68,3.21-4.26,0,2.44-.44,5,2.55,6,.31.66,3.08.65.53,2.16-.68.4-.92,1.55-1.36,2.36l-.14.23.09-.27C541.44,100.62,542.76,99.19,544.34,99.29Z"/><path class="cls-2" d="M544.34,99.29c-1.58-.1-2.9,1.33-4.55.75l.05,0c.44-.81.68-2,1.36-2.36,2.55-1.51-.22-1.5-.53-2.16,2.36-.22,3.48-2.91,5.93-3h.75l0-.06c.2.56,0,1.33.81,1.57l0-.08c0,1,.11,2,.16,3.07l-.16.76,0,0c-.79-.27-1.36-.12-1.56.79l.06,0a1.79,1.79,0,0,0-2.32.77Z"/><path class="cls-5" d="M530,104.12c0,1.33,0,1.59,0,1.83-.26,1.26.31,3.25-1.37,3.44-1.4.15-1.21-1.83-1.65-2.89a17.72,17.72,0,0,1-.81-2.87c-.23-1.09-1.49-2.68.23-3.14a2.83,2.83,0,0,1,3.51,2.48A3.45,3.45,0,0,1,530,104.12Z"/><path class="cls-3" d="M532.05,90.6c-1.36,2.07-7.46,3.55-8.86,2.17-.8-.79-.2-1.44.67-1.47C526.57,91.2,529.22,90.2,532.05,90.6Z"/><path class="cls-3" d="M539,84.53c-1.12-.4-1.36.54-2.07,1.75.22-4.12.78-7.53,2.47-10.82.13.88.24,1.6.35,2.31C540.24,80.1,538.85,82.23,539,84.53Z"/><path class="cls-3" d="M504,116.19c-1.91-3.74.11-6.31,1-9C504.59,109.89,505.6,112.68,504,116.19Z"/><path class="cls-5" d="M539,84.53c-.18-2.3,1.21-4.43.75-6.76C543.31,79.4,543.09,81.35,539,84.53Z"/><path class="cls-3" d="M511.34,112.84c1.92,1.08,4.72-.72,6.57,2.17-2.74,0-5.14.47-6.54-2.22Z"/><path class="cls-5" d="M524.1,103.06l-1.12.48-.64-.66c.56-1-1.56-2.8.37-3,1.58-.14,1.61,1.8,1.34,3.22Z"/><path class="cls-3" d="M511.37,112.79c-1.87.29-3.09-.27-3.39-2.69,1.89.31,2.55,1.63,3.36,2.74Z"/><path class="cls-2" d="M518.88,123c-.28.42-.45,1-.79,1.1-.73.28-.66-.42-.67-.83s.07-1,.69-1C518.34,122.29,518.56,122.67,518.88,123Z"/><path class="cls-3" d="M548.23,97.11c-.05-1-.11-2-.16-3.07.55.94,2,1.7.63,3A2.42,2.42,0,0,1,548.23,97.11Z"/><path class="cls-2" d="M519.63,118.87l-.72,1-.41-.4,1-.74Z"/><path class="cls-5" d="M544.3,99.35a1.79,1.79,0,0,1,2.32-.77C546.07,99.5,545.38,100,544.3,99.35Z"/><path class="cls-5" d="M515.1,107.59c-.81-.75-.64-1.5,0-2.25l-.05,0v2.31Z"/><path class="cls-5" d="M546.56,98.62c.2-.91.77-1.06,1.56-.79A1.18,1.18,0,0,1,546.56,98.62Z"/><path class="cls-3" d="M548.12,94.12c-.82-.24-.61-1-.81-1.57Z"/><path class="cls-3" d="M547.35,92.61h-.75l0-1.56,0,0Z"/><path class="cls-5" d="M524.05,103.13l.33,0-.28-.1Z"/><path class="cls-3" d="M546.63,91.05l-.33-.11.29.16Z"/><path class="cls-5" d="M548.23,97.11a2.42,2.42,0,0,0,.47,0c.1.51-.16.74-.63.8Z"/><path class="cls-2" d="M519.55,118.78l.19-.24-.11.33Z"/><path class="cls-5" d="M39.55,130.48c.22-2.66.88-5.24.3-8-.21-1-.49-3.16,1.69-3.89,1.46-.49.05-1.51,0-2.3-.15-1.31-2-3.17,1.11-3.41l0,0c1.33,2.68,4.07,3.61,6.48,4.59,3.47,1.41,3.37,4.61,4.32,7.24.5,1.35-1.3.44-1.83,1-2.39-3.26-4.68-3.6-7.31-1A5.06,5.06,0,0,0,42.54,127C42.27,128.92,41,129.67,39.55,130.48Z"/><path class="cls-5" d="M12.31,115.62c1.07-.43,1.78-.4,2,1,.44,2.49.88,5,.21,7.46a5,5,0,0,0,1.35,4.46c-1.41,1.61-2.2-.11-2.92-.74a14.65,14.65,0,0,1-2.16-3c-1.27-1.83-3.21-3.53-3.61-5.54s3.4-1.3,3.9-3.47Z"/><path class="cls-5" d="M29.77,111.34c-.41,1.78,1.32,3.56,0,5.34-.52,1-1.42.7-2.24.69.05-.42.09-.84.13-1.26-.11,0-.27,0-.33.1-.38.47-.37.87.25,1.12.58,2.17,1.89,2.52,3.73,1.46.33,2.95-2,1.81-3.26,2-2.17.29-4.08-1.43-4.07-2.91a23.52,23.52,0,0,0-1.21-6.54c0-.11.71-.45,1.09-.69l1.22,0c.25,1.17.48,2.46,2,2.42,1.06,0,1.29-.85,1.17-1.78Z"/><path class="cls-2" d="M39.55,130.48c1.4-.81,2.72-1.56,3-3.48a5.06,5.06,0,0,1,1.69-2.37c2.63-2.58,4.92-2.24,7.31,1-3.27,2.6-7.25,3.86-11,5.62C40.1,131.5,39.73,131,39.55,130.48Z"/><path class="cls-3" d="M42.61,112.86c-.48-2.69-4.19-2.44-4.66-5.13.14-.15.27-.3.4-.46,3.87.65,7.06,2.92,10.58,4.41a2.64,2.64,0,0,1,1.34,3.77c-.92,1.53-2.14,0-3.19-.39-1.61-.52-2.57-2.38-4.51-2.24Z"/><path class="cls-2" d="M15.91,128.58a5,5,0,0,1-1.35-4.46c2.18-.45,3.5.7,4.45,2.45a6.28,6.28,0,0,0,4.89,3.53,1.15,1.15,0,0,1,.63.12c.93,2.44.39,3.3-2.26,2.23-1.42-.58-2.86-1.2-3.54-2.56S17,128.64,15.91,128.58Z"/><path class="cls-5" d="M55.77,120.9c-.19-4.93,1.22-6.84,5.4-7.25.72-.07,1.55-.13,2,.56.61.89-.31,1.27-.77,1.76A19.73,19.73,0,0,1,55.77,120.9Z"/><path class="cls-5" d="M24.53,130.22a1.15,1.15,0,0,0-.63-.12c-.33-1.1,1.37-2.64-1.15-3.37-1-.31-.86-2.43.35-3.51,1.38-1.2,1.51.57,2.18,1,1.64,1,2.43,3.13,4.52,3.59l0-.07c-.11,1.1.45,2.82-1.72,2.11A3.88,3.88,0,0,0,24.53,130.22Z"/><path class="cls-3" d="M23.88,109.89c-1.34-.22-2.53-.8-2.12-2.35.65-2.46,2.55.3,3.64-.7.65,1,1.64,1.93,2.69,1.29,2.37-1.47,2.86,0,3.31,1.77l-1.6.18L27.62,110,26,110Z"/><path class="cls-2" d="M31.4,109.9c-.45-1.81-.94-3.24-3.31-1.77-1.05.64-2-.33-2.69-1.29,3.43-2.18,5.63-1.89,7,.94C33,108.94,32.9,109.18,31.4,109.9Z"/><path class="cls-3" d="M12.31,115.62l-1.19.22c-1.28.06-2.56.52-3.83,0l.07.06a4.44,4.44,0,0,1,2.05-2.46c1-.67,1.79-2.46,3.28-1.5C14.65,113.15,12.46,114.36,12.31,115.62Z"/><path class="cls-2" d="M14.07,133.87c-1.48-.69-.55,3.45-2.61,1.35-.81-.84-3.07-1.74-1.65-3,1.58-1.43,3.12.35,4.35,1.58Z"/><path class="cls-2" d="M50.14,133.17c.59,1.23-.61,1.32-1.32,1.51a1.59,1.59,0,0,1-1.9-1.34c-.14-1.52,1.32-1.49,2.34-1.7C50.84,131.32,49.59,132.67,50.14,133.17Z"/><path class="cls-2" d="M31.33,118.79c-1.84,1.06-3.15.71-3.73-1.46l-.05,0c.82,0,1.72.27,2.24-.69,1.12-.11,2.13-.05,2.24,1.42-.24.26-.48.51-.73.76Z"/><path class="cls-5" d="M29.8,127.8c.07-.1.12-.26.21-.3,1.25-.53,2.42-1.84,3.85-.5.17.16,0,1-.26,1.25-1.43,1.25-2.66.45-3.84-.51Z"/><path class="cls-2" d="M27.62,110l2.18.11,0,1.26-1.46,0Z"/><path class="cls-2" d="M23.88,109.89,26,110c-.31.23-.62.46-.92.7l-1.22,0C23.87,110.38,23.87,110.14,23.88,109.89Z"/><path class="cls-3" d="M38,107.73l-.84-.52c.43-.43.84-.22,1.24.06C38.22,107.43,38.09,107.58,38,107.73Z"/><path class="cls-2" d="M14.16,133.76l.68.22-.24.36-.53-.47Z"/><path class="cls-5" d="M22.29,115.8a9.06,9.06,0,0,1,.19-1s.46,0,.48.08a.88.88,0,0,1-.4,1.22Z"/><path class="cls-3" d="M7.29,115.79l-.2,1-.3-.17.57-.76Z"/><path class="cls-5" d="M22.56,116.06l-.57.2.3-.46Z"/><path class="cls-5" d="M31.3,118.86c.25-.25.49-.5.73-.76C31.91,118.47,31.9,119,31.3,118.86Z"/><path class="cls-5" d="M398.07,90.36c.68.72,2.31,1.44.05,2.2-2.83,1-5.65,1.93-8.51,2.77-2.2.65-4,.3-4.39-2.42a12.42,12.42,0,0,0-.47-1.42c-.58-2.07-2.55-3.78.37-6.18,2-1.62,1.18-5.5,3.78-7.5,1.57-1.22,2.36-1,3.14.62,0,.42,0,.83,0,1.25-1,1,.31,2.14-.11,3.19a1.94,1.94,0,0,0-.59,0c-1.54-.15-3.3-.77-4,1.33-.39,1.18-.89,2.59,1,3.18l0,0c-.45.93.06,1.38.87,1.58,2.61.67,3.84-.88,3.68-4.61l0,0c.51.24.69,1.14,1.51.76l0,0c-.25.78-.13,1.37.79,1.54l0-.06c-.15.73-.1,1.36.79,1.56l-.05-.06c-.05.68-.16,1.39.79,1.56l0,0a1.45,1.45,0,0,0,1.25,1.93,10.7,10.7,0,0,0,.32-1.19Zm-3.88,1.41c-1.13-1.07-1.79-2.3-3.42-1.18-1.42,1-3.58,1.26-2.77,4Z"/><path class="cls-5" d="M368.39,84.17c.54,2.14,2.07,3.52,1.36,4.69-1.26,2.1-3,5.14-4.88,5.36-3.67.45-4.2,2.8-5.22,5.23a2.43,2.43,0,0,1-1.27,1.43c.22-1.81.57-3.61.62-5.41.09-3.15,3.15-3,4.81-4.16C367.63,88.66,367.82,88.94,368.39,84.17Z"/><path class="cls-5" d="M376,101.29c2.21,3.13-1.53,5-2.45,5.21-2,.48-3.71-1.89-4.48-3.68-.89-2.07.49-3.43,2.83-3.46l0,0c.23.93.16,2.19.75,2.71.8.71,2.33,2.4,2.92-.38C375.65,101.53,375.81,101.41,376,101.29Z"/><path class="cls-5" d="M373.83,91.92c1.67-.35,2.57.61,3.09,2,.43,1.15.75,2.11,2.1,2.71a2.12,2.12,0,0,1,.75,3.19c-.36.61-.38,1.67-1.26,1.66-1.43,0-1.48-1.49-1.89-2.4-1.05-2.33-2.66-4.45-2.78-7.14Z"/><path class="cls-3" d="M365.55,100.75c1.56,1.8,2.81,3.48,1.9,5.8-.3.77,1.25,2.16-.64,2.3-1.09.07-1.72-.91-2-1.94C364.34,104.88,363.47,102.81,365.55,100.75Z"/><path class="cls-5" d="M377.3,85.13c-1.08,0-1.55.14-1.8,0-1.18-.81-3.31,2-3.54-.49-.16-1.73,2.38-.78,3.65-1.29a14.53,14.53,0,0,1,4-.5c1.13-.1,2,.16,1.91,1.55,0,1.56-.91,1.37-2,1.07A12.68,12.68,0,0,0,377.3,85.13Z"/><path class="cls-2" d="M387.54,74.63c-.38.7-.75,1.41-1.35,2.51-.38-4,1-7.31,1.06-11.79,1.5,2.26.74,3.94,2.05,5.07.82.72.51,1.49-.79,1.71-1.54.25-.69,1.56-.88,2.41Z"/><path class="cls-5" d="M382.33,115.81c-1.48.26-1.75,1.77-2.7,2.58-.13-.14-.28-.28-.42-.42-.16-1.06-.62-2.15.33-3.1.67-.66,1.14-2,2.22-1.62,1.25.4.39,1.7.55,2.59Z"/><path class="cls-5" d="M371.87,99.36A1.78,1.78,0,0,1,373,96.71c1.34-.43,1.31,1.14,1.76,1.89a23.42,23.42,0,0,1,1.24,2.69l-.46.37-3.67-2.33Z"/><path class="cls-5" d="M377.13,117.51c-.29.78-.52,1.69-1.67,1.54-.74-.09-1.74-.49-1.68-1.18.11-1.14,1.32-1.26,2.26-1.43C376.81,116.3,377.18,116.69,377.13,117.51Z"/><path class="cls-3" d="M373.83,91.92h0c-1.62-2.45-.53-3.4,2.31-3.81Z"/><path class="cls-3" d="M395.05,85.12c1.9.92,2.18,2.66,2.26,4.49l0,0h-.8l0,0c.1-.7.08-1.34-.79-1.56l.05.06c.07-.69,0-1.31-.79-1.56l0,.06,0-1.56Z"/><path class="cls-3" d="M395.11,82l-.06,3.1.06-.06-.81,0,0,0c-.24-1.27-.48-2.53-.73-3.8l-.05.05,1.58.68Z"/><path class="cls-3" d="M378.56,94.06c-.1-.84.14-1.52,1.09-1.52.48,0,1.12.4.89.93-.34.79-1.27.46-2,.62Z"/><path class="cls-3" d="M379.57,91.25c-.23-.15-.71-.3-.72-.49-.07-.67.55-.77,1-.77a1,1,0,0,1,.8.53C380.81,91.33,380.05,91,379.57,91.25Z"/><path class="cls-2" d="M387.63,74.54c.39.14,1,0,.89.74a.33.33,0,0,1-.23.24c-.75.13-.61-.49-.75-.89Z"/><path class="cls-3" d="M392.81,79.86c.79.23.74.88.75,1.51l.05-.05c-.71-.28-.75-.88-.74-1.51Z"/><path class="cls-3" d="M392.08,79.68c0-.42,0-.83,0-1.25a1.34,1.34,0,0,1,.77,1.43l.06,0Z"/><path class="cls-3" d="M397.31,89.61c.56-.07.73.27.76.75l.05,0-.77-.75Z"/><path class="cls-3" d="M378.59,94.09a1.3,1.3,0,0,1-.17.26s-.14,0-.22,0l.36-.28Z"/><polygon class="cls-3" points="377.22 89.21 377.49 89.11 377.47 89.34 377.22 89.21"/><path class="cls-5" d="M379.63,118.39c-.25.29-.53.58-.84.1,0-.06.27-.34.42-.52C379.35,118.11,379.5,118.25,379.63,118.39Z"/><path class="cls-5" d="M463.64,94.51a5.83,5.83,0,0,1-.22.71c-.77,1.83-1.28,3.77.8,5,2.36,1.35,3.56-.59,4.72-2.22.26.2.53.3.65.5,2.89,4.78,2.89,4.78-2.09,7.4a13.84,13.84,0,0,0-2,1c-3,2.14-4.71,1.28-5.61-2.16a29.33,29.33,0,0,0-1.8-4.5c-1.34-2.94-1.17-3.22,2.12-3.39,1.76-.08,1.2-2.79,3.08-2.8Zm4.65,8.61c-.61-.45-.66-1.69-1.53-1.37-1.54.56-3.64,0-4.52,1.94-.23.51-.15,1.48.75,1.26C464.72,104.51,466.69,104.71,468.29,103.12Z"/><path class="cls-5" d="M441,117.85c-.84-4.24,2.28-6.41,4.71-8.92a1.24,1.24,0,0,1,2,1.52c-.82,2-1,3.54,1.68,4.15.3.07.57,1.08.53,1.63-.13,1.56-1.62.61-2.34,1.14.54-.47.17-.82-.19-1.14,0,0-.29,0-.33.1-.25.58.05.86.58,1-.32,1.69-2.21,3-.67,5.08-2.49-.23-2.61-2.87-4.58-2.86l0,0a.62.62,0,0,0-.52-.91l-.12.08c0-.57-.14-.92-.79-.81Z"/><path class="cls-2" d="M436.24,125.55a15.62,15.62,0,0,0-6.19-.68l-.06,0a.79.79,0,0,0,.36-.59c1.44-1.15.68-2.76.74-4.13.16-3.6.61-7.09,2.49-10.26,2,.56,2.57,1.92,2.32,3.91s-.23,3.9-.33,5.85C435,121.7,436.17,123.56,436.24,125.55Z"/><path class="cls-5" d="M433.58,109.87c-1.88,3.17-2.33,6.66-2.49,10.26-.06,1.37.7,3-.74,4.13-2.81-1.58-3.49-3.75-2.4-6.86,1-2.82,1.65-5.75,3.15-8.37.4-.71.72-2,1.68-1.7S433.74,108.87,433.58,109.87Z"/><path class="cls-5" d="M454.21,110.12c-.45,1.19.69,3-1.51,3.56-2.64.65-2.49-1.63-3.18-3a4.12,4.12,0,0,1-.75-2c.2-1.34-2.46-3,.2-4a3.82,3.82,0,0,1,5.22,3.18A15.56,15.56,0,0,1,454.21,110.12Z"/><path class="cls-3" d="M436.24,125.55c-.07-2-1.29-3.85-.67-5.92l1.62-.16c-.09,1-.11,2.21,1.1,2.44s.65-1,1-1.61c.52-.94,1.56-.43,2.29-.81l.82.09,0,0c-.61.93,2.07,2.68-.77,3a.88.88,0,0,0-.07-.29s-.14,0-.21,0l.31.3c-.56,2.18-2.54,4.4.24,6.45l-.42.51C439,129.15,437,128.13,436.24,125.55Z"/><path class="cls-2" d="M440.6,100.14c-.37,3.31,3.34-.18,2.86,2.06-.34,1.6-2.3,3-4.19,3.26-1,.13-1.89-1-1.78-2.34C437.63,101.39,439.08,101.12,440.6,100.14Z"/><path class="cls-2" d="M455.08,96.36c-.81,3.3-3,4.66-5.79,3.92-.62-.16-.83-.45-.86-1a1.46,1.46,0,0,1,.89-1.51A16.72,16.72,0,0,1,455.08,96.36Z"/><path class="cls-5" d="M463.69,82c1.24,2.23,3,3.76,1,6-.44.48-1.19,1.09-1.52.62C461.72,86.54,463,84.57,463.69,82Z"/><path class="cls-2" d="M441.54,119.49c-.73.38-1.77-.13-2.29.81-.31.56.21,1.83-1,1.61s-1.19-1.41-1.1-2.44l3.81-1.62-.07.09.79.81.11-.07C441.73,119,441.63,119.22,441.54,119.49Z"/><path class="cls-5" d="M463.31,94.06c.34-1.75,1.81-2.18,3.18-2.75.81,2.68.81,2.68-2.86,3.19Z"/><path class="cls-2" d="M457.3,104.15c1.71,1.57,1.95,3.6,2.23,5.62l-.92.21Q458,107.07,457.3,104.15Z"/><path class="cls-2" d="M448.5,132.58c-2.67-2.19-2.17-4.28-1.78-6.33C447.23,128.05,447.73,129.85,448.5,132.58Z"/><path class="cls-2" d="M436,107.8c-1-.27-1.51-.82-1.51-1.58s.73-.88,1.35-.83,1.71-.2,1.49.91C437.2,106.89,436.41,107.34,436,107.8Z"/><path class="cls-3" d="M441.84,129c1.06.39,2.49-.07,3.19,1.51a4.76,4.76,0,0,1-3.61-1Z"/><path class="cls-2" d="M455,109l.65-.75a3.68,3.68,0,0,1,.58.75c.05.11-.26.53-.31.51A6,6,0,0,1,455,109Z"/><path class="cls-2" d="M455.8,113.56c.05-.23.11-.47.17-.7l.35.22-.46.54Z"/><path class="cls-2" d="M455.86,113.62l-.17.24c0-.1.07-.2.11-.3Z"/><path class="cls-1" d="M324.44,79.88c1,.5.89,1.38.83,2.26C324.41,81.6,323.93,80.93,324.44,79.88Z"/><path class="cls-1" d="M325.19,82.16a2.8,2.8,0,0,1,.39.46s-.15.17-.23.26C325.3,82.64,325.25,82.4,325.19,82.16Z"/><path class="cls-1" d="M321.55,79.84c-.06-.58,0-1,.77-.78C322.4,79.65,322.15,79.91,321.55,79.84Z"/><path class="cls-3" d="M290.85,66.33c-.7.63-1.54.45-2.81.41l2.85-.36Z"/><path class="cls-6" d="M295.41,56.67l-.43.23c.08-.14.15-.29.22-.43Z"/><path class="cls-2" d="M337.28,33.38l.75,1.49c0,1,0,2,.05,3-1.47-1.43-1.7-3.4-2.24-5.24Z"/><path class="cls-3" d="M211.3,63.86c-6.93-.06-13.88.85-20.77-.62-.54-.12-1.18.26-1.77.41l-6.92.2c5.43-1.76,11-1.12,16.56-1.14,4.09,0,8.17,0,12.25,0Z"/><path class="cls-5" d="M211.3,63.86l-.65-1.11c4.59-1,9.41.14,13.93-1.54.46-.17,1.51.11,1.63.43.36,1-.5,1.29-1.24,1.36C220.42,63.45,215.89,64.24,211.3,63.86Z"/><path class="cls-2" d="M177.7,64.73c-6.26.71-12.49,1.62-18.77,2C165,64.51,171.39,64.86,177.7,64.73Z"/><path class="cls-3" d="M227.84,59.58c1.73-3.11,1.73-3.11.58-11.09,1.79,2.75,2.12,6,2.47,9.14.16,1.35-1.49,1.4-2.4,1.93A1.3,1.3,0,0,1,227.84,59.58Z"/><path class="cls-2" d="M181.84,63.85l6.92-.2c-2.62,2.64-5.82.24-8.89,1.59C180.38,63.69,181.28,64.16,181.84,63.85Z"/><path class="cls-5" d="M227.84,59.58a1.3,1.3,0,0,0,.65,0c.93,1-.26,1-.63,1.27-.11.1-.72-.13-.75-.28C227,60,227.34,59.71,227.84,59.58Z"/><path class="cls-3" d="M314.84,34.84l.12-.72.35.18-.48.53Z"/><path class="cls-3" d="M315.59,36.34l.31-.31c0,.07,0,.17-.06.2a.74.74,0,0,1-.26.1Z"/><path class="cls-3" d="M271.2,58.72l.46-.86c.08.07.25.19.24.21-.15.28-.33.55-.49.82Z"/><path class="cls-6" d="M283.4,41.64l-.34.91c-.08-.07-.26-.18-.25-.2.15-.28.32-.54.48-.82Z"/><path class="cls-6" d="M285.48,37.74l.41-.87c.08.07.25.19.24.21-.14.29-.31.56-.48.84Z"/><path class="cls-6" d="M283.29,41.53l.37-.27c-.09.12-.17.25-.26.38Z"/><path class="cls-6" d="M285.65,37.92l-.42.27.25-.45Z"/><path class="cls-1" d="M107.05,115.81c2.08,1,.89,3.09,1.56,4.56C106.59,119.36,107.42,117.38,107.05,115.81Z"/><path class="cls-1" d="M515.06,107.62v-2.31c1.09,0,2,.6,2,1.59C517,108.12,515.61,107,515.06,107.62Z"/><polygon class="cls-2" points="539.79 100.04 539.7 100.31 539.84 100.08 539.79 100.04"/><path class="cls-1" d="M25.1,110.65c.3-.24.61-.47.92-.7l1.6,0,.69,1.32c.12.93-.11,1.76-1.17,1.78C25.58,113.11,25.35,111.82,25.1,110.65Z"/><path class="cls-2" d="M27.6,117.33c-.62-.25-.63-.65-.25-1.12.06-.07.22-.07.33-.1,0,.42-.08.84-.13,1.26Z"/><path class="cls-2" d="M394.19,91.77,388,94.54c-.81-2.69,1.35-3,2.77-4C392.4,89.47,393.06,90.7,394.19,91.77Z"/><path class="cls-3" d="M391.38,82.85a2.32,2.32,0,0,1,.59,0c.29.5.58,1,.86,1.5l0,0c-1.52,1-1.61,4.17-4.55,3l0,0C387.82,84.83,390,84.12,391.38,82.85Z"/><path class="cls-1" d="M388.31,87.34c2.94,1.14,3-2,4.55-3,.16,3.73-1.07,5.28-3.68,4.61C388.37,88.72,387.86,88.27,388.31,87.34Z"/><path class="cls-1" d="M391.38,82.85c-1.37,1.27-3.56,2-3.05,4.51-1.85-.59-1.35-2-1-3.18C388.08,82.08,389.84,82.7,391.38,82.85Z"/><path class="cls-1" d="M392.83,84.36c-.28-.5-.57-1-.86-1.5.42-1-.93-2.15.11-3.18l.79.13c0,.63,0,1.23.74,1.51.25,1.27.49,2.53.73,3.8C393.52,85.5,393.34,84.6,392.83,84.36Z"/><path class="cls-1" d="M397.35,89.57l.77.75a10.7,10.7,0,0,1-.32,1.19,1.45,1.45,0,0,1-1.25-1.93Z"/><path class="cls-1" d="M394.3,85.08l.81,0c0,.52,0,1,0,1.56C394.17,86.45,394.05,85.86,394.3,85.08Z"/><path class="cls-1" d="M395.06,86.56c.8.25.86.87.79,1.56C395,87.92,394.91,87.29,395.06,86.56Z"/><path class="cls-1" d="M395.8,88.06c.87.22.89.86.79,1.56C395.64,89.45,395.75,88.74,395.8,88.06Z"/><path class="cls-1" d="M371.83,99.33l3.67,2.33c-.59,2.78-2.12,1.09-2.92.38C372,101.52,372.06,100.26,371.83,99.33Z"/><path class="cls-1" d="M468.29,103.12c-1.6,1.59-3.57,1.39-5.3,1.83-.9.22-1-.75-.75-1.26.88-1.94,3-1.38,4.52-1.94C467.63,101.43,467.68,102.67,468.29,103.12Z"/><path class="cls-1" d="M447.59,117.33c-.53-.14-.83-.42-.58-1,0-.07.29-.14.33-.1.36.32.73.67.19,1.14Z"/><path class="cls-1" d="M441.72,118.75l-.79-.81C441.58,117.83,441.76,118.18,441.72,118.75Z"/><path class="cls-1" d="M441.54,119.49c.09-.27.19-.54.29-.81a.61.61,0,0,1,.53.9Z"/><path class="cls-1" d="M441.6,122.57l-.31-.3c.07,0,.19,0,.21,0a.88.88,0,0,1,.07.29Z"/></svg>